<?xml version="1.0" encoding="UTF-8" standalone="no"?>
<!-- Created with Inkscape (http://www.inkscape.org/) -->

<svg
   xmlns:dc="http://purl.org/dc/elements/1.1/"
   xmlns:cc="http://creativecommons.org/ns#"
   xmlns:rdf="http://www.w3.org/1999/02/22-rdf-syntax-ns#"
   xmlns:svg="http://www.w3.org/2000/svg"
   xmlns="http://www.w3.org/2000/svg"
   xmlns:sodipodi="http://sodipodi.sourceforge.net/DTD/sodipodi-0.dtd"
   xmlns:inkscape="http://www.inkscape.org/namespaces/inkscape"
   width="101.00366mm"
   height="115.75384mm"
   viewBox="0 0 101.00366 115.75384"
   version="1.1"
   id="svg25897"
   inkscape:version="0.92.4 5da689c313, 2019-01-14"
   sodipodi:docname="APIs.svg">
  <defs
     id="defs25891">
    <marker
       inkscape:isstock="true"
       style="overflow:visible"
       id="marker12312"
       refX="0"
       refY="0"
       orient="auto"
       inkscape:stockid="Arrow2Mend">
      <path
         transform="scale(-0.6)"
         d="M 8.7185878,4.0337352 -2.2072895,0.01601326 8.7185884,-4.0017078 c -1.7454984,2.3720609 -1.7354408,5.6174519 -6e-7,8.035443 z"
         style="fill:#000000;fill-opacity:1;fill-rule:evenodd;stroke:#000000;stroke-width:0.625;stroke-linejoin:round;stroke-opacity:1"
         id="path12310"
         inkscape:connector-curvature="0" />
    </marker>
    <marker
       inkscape:stockid="Arrow2Mend"
       orient="auto"
       refY="0"
       refX="0"
       id="marker12306"
       style="overflow:visible"
       inkscape:isstock="true">
      <path
         inkscape:connector-curvature="0"
         id="path12304"
         style="fill:#000000;fill-opacity:1;fill-rule:evenodd;stroke:#000000;stroke-width:0.625;stroke-linejoin:round;stroke-opacity:1"
         d="M 8.7185878,4.0337352 -2.2072895,0.01601326 8.7185884,-4.0017078 c -1.7454984,2.3720609 -1.7354408,5.6174519 -6e-7,8.035443 z"
         transform="scale(-0.6)" />
    </marker>
    <marker
       inkscape:stockid="Arrow1Send"
       orient="auto"
       refY="0"
       refX="0"
       id="Arrow1Send"
       style="overflow:visible"
       inkscape:isstock="true"
       inkscape:collect="always">
      <path
         inkscape:connector-curvature="0"
         id="path52398"
         d="M 0,0 5,-5 -12.5,0 5,5 Z"
         style="fill:#000000;fill-opacity:1;fill-rule:evenodd;stroke:#000000;stroke-width:1.00000003pt;stroke-opacity:1"
         transform="matrix(-0.2,0,0,-0.2,-1.2,0)" />
    </marker>
    <marker
       inkscape:isstock="true"
       style="overflow:visible"
       id="marker60687"
       refX="0"
       refY="0"
       orient="auto"
       inkscape:stockid="Arrow1Send">
      <path
         inkscape:connector-curvature="0"
         transform="matrix(-0.2,0,0,-0.2,-1.2,0)"
         style="fill:#000000;fill-opacity:1;fill-rule:evenodd;stroke:#000000;stroke-width:1.00000003pt;stroke-opacity:1"
         d="M 0,0 5,-5 -12.5,0 5,5 Z"
         id="path60685" />
    </marker>
  </defs>
  <sodipodi:namedview
     id="base"
     pagecolor="#ffffff"
     bordercolor="#666666"
     borderopacity="1.0"
     inkscape:pageopacity="0.0"
     inkscape:pageshadow="2"
     inkscape:zoom="1.1826172"
     inkscape:cx="182.87967"
     inkscape:cy="107.35518"
     inkscape:document-units="mm"
     inkscape:current-layer="layer1"
     showgrid="false"
     fit-margin-top="0"
     fit-margin-left="0"
     fit-margin-right="0"
     fit-margin-bottom="0"
     inkscape:window-width="1920"
     inkscape:window-height="1035"
     inkscape:window-x="1920"
     inkscape:window-y="45"
     inkscape:window-maximized="0" />
  <metadata
     id="metadata25894">
    <rdf:RDF>
      <cc:Work
         rdf:about="">
        <dc:format>image/svg+xml</dc:format>
        <dc:type
           rdf:resource="http://purl.org/dc/dcmitype/StillImage" />
        <dc:title></dc:title>
      </cc:Work>
    </rdf:RDF>
  </metadata>
  <g
     inkscape:label="Layer 1"
     inkscape:groupmode="layer"
     id="layer1"
     transform="translate(-45.47703,-56.114438)">
    <path
       inkscape:connector-curvature="0"
       inkscape:export-ydpi="288"
       inkscape:export-xdpi="288"
       inkscape:export-filename="/home/adan/g61354.png"
       id="path61333"
       d="m 106.82214,65.800978 a 11.094094,11.094094 0 0 1 -0.0259,0.46716 c 8.49773,1.87236 16.18358,5.905 22.45497,11.49129 a 11.094093,11.094093 0 0 1 0.31316,-0.3359 c -6.3491,-5.65794 -14.13454,-9.73866 -22.74228,-11.62255 z m -22.126819,0.0982 c -8.646422,1.97446 -16.449411,6.16525 -22.775361,11.94708 a 9.4588563,9.4588563 0 0 1 0.34108,0.31058 c 6.25043,-5.703 13.95349,-9.83925 22.48852,-11.79618 a 11.094094,11.094094 0 0 1 -0.0542,-0.46148 z M 50.59508,92.9611 c -3.27639,6.693395 -5.11805,14.21641 -5.11805,22.17022 0,6.20509 1.12194,12.14792 3.16984,17.63975 a 11.094093,11.094093 0 0 1 0.371031,-0.32556 C 47.02826,127.05 45.93955,121.21826 45.93955,115.13132 c 0,-7.86602 1.81666,-15.306565 5.04981,-21.928375 A 9.4588563,9.4588563 0 0 1 50.59508,92.9611 Z m 91.75306,2.13682 a 11.094093,11.094093 0 0 1 -0.42066,0.188619 c 2.63115,6.083981 4.09019,12.793471 4.09019,19.844781 0,5.80738 -0.9925,11.38181 -2.8112,16.56747 a 11.094093,11.094093 0 0 1 0.40257,0.24701 c 1.85737,-5.26055 2.87165,-10.9187 2.87165,-16.81448 0,-7.11809 -1.47452,-13.89144 -4.13255,-20.0334 z m -10.93372,55.36509 c -6.61668,6.63623 -15.08681,11.42113 -24.56749,13.52063 a 11.094093,11.094093 0 0 1 -0.0238,0.47956 c 9.65369,-2.11363 18.27567,-6.98578 24.99381,-13.75317 a 11.094093,11.094093 0 0 1 -0.40257,-0.24702 z m -70.36727,0.49765 a 11.094093,11.094093 0 0 1 -0.44185,0.20877 c 6.54434,6.4246 14.828519,11.08299 24.082268,13.19713 a 11.094093,11.094093 0 0 1 -0.01691,-0.47852 c -9.06518,-2.09361 -17.186539,-6.65083 -23.623349,-12.92738 z"
       style="color:#000000;font-style:normal;font-variant:normal;font-weight:normal;font-stretch:normal;font-size:medium;line-height:normal;font-family:sans-serif;font-variant-ligatures:normal;font-variant-position:normal;font-variant-caps:normal;font-variant-numeric:normal;font-variant-alternates:normal;font-feature-settings:normal;text-indent:0;text-align:start;text-decoration:none;text-decoration-line:none;text-decoration-style:solid;text-decoration-color:#000000;letter-spacing:normal;word-spacing:normal;text-transform:none;writing-mode:lr-tb;direction:ltr;text-orientation:mixed;dominant-baseline:auto;baseline-shift:baseline;text-anchor:start;white-space:normal;shape-padding:0;clip-rule:nonzero;display:inline;overflow:visible;visibility:visible;opacity:1;isolation:auto;mix-blend-mode:normal;color-interpolation:sRGB;color-interpolation-filters:linearRGB;solid-color:#000000;solid-opacity:1;vector-effect:none;fill:#000000;fill-opacity:1;fill-rule:nonzero;stroke:none;stroke-width:0.46302083;stroke-linecap:round;stroke-linejoin:miter;stroke-miterlimit:4;stroke-dasharray:none;stroke-dashoffset:0;stroke-opacity:1;color-rendering:auto;image-rendering:auto;shape-rendering:auto;text-rendering:auto;enable-background:accumulate" />
    <g
       inkscape:export-ydpi="288"
       inkscape:export-xdpi="288"
       inkscape:export-filename="/home/adan/g61354.png"
       id="g4161"
       transform="matrix(0.72372114,0,0,0.72255346,-149.80254,-6.2521012)"
       style="stroke-width:1.38286376">
      <path
         inkscape:connector-curvature="0"
         id="path3386-2"
         d="m 333.15112,143.7933 c -1.08836,0.0154 -2.27632,0.3055 -3.47885,1.00666 l -5.97122,3.70727 v -0.002 l -24.38146,15.14067 c 1.57845,1.05419 4.25198,1.60264 7.00061,0 l 30.35268,-18.84639 -0.29765,-0.185 c -0.85715,-0.4957 -1.97491,-0.8389 -3.22411,-0.82114 z m 7.0249,3.18069 -1.74977,1.08675 -6.7877,4.21525 c -0.57169,0.31196 -1.12215,0.65748 -1.65415,1.02784 l -23.65698,14.69212 23.66008,14.69419 c 0.52914,0.36818 1.07696,0.71122 1.64536,1.02166 l 8.54213,5.30509 8.52971,-5.29735 c 0.57576,-0.31379 1.12996,-0.66159 1.66553,-1.03456 l 23.65333,-14.68954 -23.66368,-14.69679 c -0.52546,-0.36542 -1.06931,-0.70588 -1.63348,-1.01439 z m -5.3e-4,6.8776 c 7.83373,0 14.14436,6.31066 14.14436,14.14436 0,7.8337 -6.31063,14.14333 -14.14436,14.14333 -7.83371,0 -14.1433,-6.30963 -14.1433,-14.14333 0,-7.8337 6.30959,-14.14436 14.1433,-14.14436 z m -16.75453,7.87343 c -0.73424,1.95316 -1.13842,4.06557 -1.13842,6.27093 0,2.20457 0.40365,4.31688 1.13739,6.26938 l -10.0955,-6.26989 z m 33.51012,0.002 10.09499,6.26939 -10.09449,6.26937 c 0.73382,-1.95251 1.13792,-4.06479 1.13792,-6.26937 0,-2.20479 -0.40447,-4.31663 -1.13842,-6.26939 z m 20.5791,9.61285 c -1.08839,0.0155 -2.27634,0.30499 -3.47887,1.00613 l -30.35266,18.84588 0.29816,0.18501 c 0.85715,0.49567 1.97437,0.83889 3.22358,0.82114 1.08836,-0.0154 2.27634,-0.30498 3.47885,-1.00615 l 5.97122,-3.70726 v 5.3e-4 l 24.3799,-15.13964 -0.31882,-0.19792 c -0.85416,-0.48869 -1.96313,-0.82532 -3.20136,-0.80771 z"
         style="color:#000000;font-style:normal;font-variant:normal;font-weight:normal;font-stretch:normal;font-size:medium;line-height:normal;font-family:sans-serif;font-variant-ligatures:normal;font-variant-position:normal;font-variant-caps:normal;font-variant-numeric:normal;font-variant-alternates:normal;font-feature-settings:normal;text-indent:0;text-align:start;text-decoration:none;text-decoration-line:none;text-decoration-style:solid;text-decoration-color:#000000;letter-spacing:normal;word-spacing:normal;text-transform:none;writing-mode:lr-tb;direction:ltr;text-orientation:mixed;dominant-baseline:auto;baseline-shift:baseline;text-anchor:start;white-space:normal;shape-padding:0;clip-rule:nonzero;display:inline;overflow:visible;visibility:visible;opacity:1;isolation:auto;mix-blend-mode:normal;color-interpolation:sRGB;color-interpolation-filters:linearRGB;solid-color:#000000;solid-opacity:1;vector-effect:none;fill:#6600de;fill-opacity:1;fill-rule:nonzero;stroke:none;stroke-width:6.17248106;stroke-linecap:round;stroke-linejoin:miter;stroke-miterlimit:4;stroke-dasharray:none;stroke-dashoffset:0;stroke-opacity:1;paint-order:markers fill stroke;color-rendering:auto;image-rendering:auto;shape-rendering:auto;text-rendering:auto;enable-background:accumulate" />
      <path
         inkscape:connector-curvature="0"
         style="color:#000000;font-style:normal;font-variant:normal;font-weight:normal;font-stretch:normal;font-size:medium;line-height:normal;font-family:sans-serif;font-variant-ligatures:normal;font-variant-position:normal;font-variant-caps:normal;font-variant-numeric:normal;font-variant-alternates:normal;font-feature-settings:normal;text-indent:0;text-align:start;text-decoration:none;text-decoration-line:none;text-decoration-style:solid;text-decoration-color:#000000;letter-spacing:normal;word-spacing:normal;text-transform:none;writing-mode:lr-tb;direction:ltr;text-orientation:mixed;dominant-baseline:auto;baseline-shift:baseline;text-anchor:start;white-space:normal;shape-padding:0;clip-rule:nonzero;display:inline;overflow:visible;visibility:visible;opacity:1;isolation:auto;mix-blend-mode:normal;color-interpolation:sRGB;color-interpolation-filters:linearRGB;solid-color:#000000;solid-opacity:1;vector-effect:none;fill:none;fill-opacity:1;fill-rule:nonzero;stroke:#000000;stroke-width:0.73176545;stroke-linecap:round;stroke-linejoin:miter;stroke-miterlimit:4;stroke-dasharray:none;stroke-dashoffset:0;stroke-opacity:1;paint-order:markers fill stroke;color-rendering:auto;image-rendering:auto;shape-rendering:auto;text-rendering:auto;enable-background:accumulate"
         d="m 332.09278,143.7933 c -1.08836,0.0154 -2.27631,0.3055 -3.47885,1.00666 l -5.97122,3.70727 v -0.002 l -24.38146,15.14067 c 1.57845,1.05419 4.25199,1.60264 7.00061,0 l 30.35269,-18.84638 -0.29766,-0.18501 c -0.85715,-0.4957 -1.9749,-0.83889 -3.22411,-0.82114 z m 7.0249,3.18069 -1.74977,1.08675 -6.7877,4.21525 c -0.57168,0.31196 -1.12215,0.65748 -1.65415,1.02784 l -23.65697,14.69212 23.66007,14.6942 c 0.52914,0.36817 1.07696,0.71121 1.64536,1.02165 l 8.54213,5.30509 8.52972,-5.29735 c 0.57576,-0.31379 1.12995,-0.66158 1.66552,-1.03456 l 23.65333,-14.68954 -23.66367,-14.69678 c -0.52547,-0.36543 -1.06932,-0.70588 -1.63349,-1.0144 z m -5.3e-4,6.87762 c 7.83373,0 14.14436,6.31064 14.14436,14.14434 0,7.8337 -6.31063,14.14333 -14.14436,14.14333 -7.8337,0 -14.1433,-6.30963 -14.1433,-14.14333 0,-7.8337 6.3096,-14.14434 14.1433,-14.14434 z m -16.75453,7.87342 c -0.73424,1.95316 -1.13842,4.06557 -1.13842,6.27092 0,2.20457 0.40365,4.31688 1.13739,6.26939 l -10.09549,-6.2699 z m 33.51012,0.002 10.09499,6.26938 -10.09449,6.26939 c 0.73382,-1.95253 1.13792,-4.06481 1.13792,-6.26939 0,-2.20479 -0.40447,-4.31663 -1.13842,-6.26938 z m 20.57911,9.61285 c -1.08839,0.0155 -2.27635,0.30498 -3.47888,1.00614 l -30.35265,18.84587 0.29815,0.185 c 0.85715,0.49569 1.97438,0.83891 3.22358,0.82115 1.08837,-0.0154 2.27634,-0.30498 3.47885,-1.00615 l 5.97122,-3.70727 v 5.3e-4 l 24.3799,-15.13964 -0.31882,-0.19792 c -0.85416,-0.48869 -1.96313,-0.82531 -3.20135,-0.8077 z"
         id="path25497" />
    </g>
    <g
       inkscape:export-ydpi="288"
       inkscape:export-xdpi="288"
       inkscape:export-filename="/home/adan/g61354.png"
       id="g49405"
       transform="matrix(0.86780473,0,0,0.86784318,-284.74152,-44.508333)"
       style="stroke-width:1.15230739">
      <path
         inkscape:connector-curvature="0"
         id="path6334"
         d="m 438.99592,116.50825 c -0.20193,0.32112 -0.53684,0.88174 -0.91674,1.54048 -0.5699,0.98819 -1.06203,1.83883 -1.09295,1.89031 -0.002,0.003 -10e-4,0.005 -0.003,0.008 0.61261,-0.17177 1.29586,-0.24435 1.973,-0.21911 0.69096,-0.0266 1.3921,0.0493 2.02159,0.22789 -0.11362,-0.23572 -0.51526,-0.95935 -1.01803,-1.82936 -0.40136,-0.6945 -0.75484,-1.28577 -0.96377,-1.61797 z m 6.46834,2.74558 c -0.86444,0.22195 -3.42201,0.95414 -3.47627,1.00406 -0.0254,0.0234 0.11078,0.12155 0.30231,0.2186 0.85868,0.43503 1.86748,1.35837 2.41742,2.17866 0.0959,-0.35751 0.21929,-0.83587 0.36018,-1.40507 0.33577,-1.35644 0.44327,-1.82888 0.39636,-1.99625 z m -13.4953,0.14157 c -0.0624,0.13081 0.0389,0.51385 0.36897,1.67175 0.29776,1.0446 0.4845,1.68926 0.6072,2.08875 0.53076,-0.99991 1.56916,-2.07018 2.5461,-2.60191 0.15078,-0.082 0.27388,-0.16669 0.27388,-0.18809 0,-0.038 -2.8013,-0.74674 -3.79615,-0.9705 z m 6.99958,1.32964 c -0.35806,0.0112 -0.69763,0.0445 -0.94,0.10128 -1.03958,0.24361 -1.9511,0.74237 -2.71405,1.48469 -0.78002,0.7589 -1.32988,1.73609 -1.58181,2.81119 -0.14139,0.60336 -0.14139,1.80576 0,2.40914 0.25193,1.07511 0.80179,2.05277 1.58181,2.81173 0.89598,0.87172 1.81853,1.32299 3.23185,1.58078 0.0282,0.005 0.0715,0.008 0.11472,0.0114 0.46833,-0.0143 1.03038,-0.0581 1.27848,-0.11628 1.04846,-0.24585 2.02791,-0.80034 2.78019,-1.57356 0.74232,-0.76295 1.24105,-1.67446 1.48466,-2.71404 0.14139,-0.60338 0.14139,-1.80578 0,-2.40914 -0.25193,-1.0751 -0.80178,-2.05229 -1.58181,-2.81119 -0.76295,-0.74232 -1.67446,-1.24108 -2.71405,-1.48469 -0.24228,-0.0568 -0.58209,-0.0901 -0.93999,-0.10128 z m 6.51329,3.5574 c 0.008,0.0281 0.0117,0.0459 0.0212,0.076 0.36894,1.16179 0.37753,2.62472 0.0227,3.75328 -0.0106,0.0338 -0.01,0.0362 -0.0196,0.0682 0.12663,-0.071 0.23198,-0.12782 0.37982,-0.21342 0.55134,-0.31924 1.39012,-0.8042 1.86449,-1.07746 0.47437,-0.27326 0.8753,-0.52988 0.8909,-0.57052 0.0156,-0.0406 0.0155,-0.10726 0,-0.1478 -0.0165,-0.043 -2.10861,-1.28587 -3.1595,-1.88825 z m -13.0452,0.0543 c -1.0408,0.58602 -3.06521,1.77816 -3.08663,1.83398 -0.0155,0.0404 -0.0154,0.10658 0,0.14677 0.0193,0.0502 2.02882,1.23918 3.07061,1.83142 -0.004,-0.0146 -0.007,-0.0242 -0.0114,-0.0393 -0.14823,-0.47482 -0.26871,-1.2991 -0.26871,-1.83814 0,-0.54514 0.12088,-1.36218 0.27492,-1.8588 0.009,-0.0289 0.0131,-0.0485 0.0212,-0.076 z m 12.48555,5.17954 c -0.55522,0.98305 -1.56996,1.9868 -2.57866,2.52904 -0.30407,0.16346 -0.35202,0.23067 -0.22066,0.31057 0.10407,0.0633 2.96848,0.78018 3.7791,0.95343 0.007,-0.008 0.0153,-0.0157 0.0207,-0.0258 0.0503,-0.094 -0.0534,-0.48572 -1.00045,-3.76721 z m -11.81117,0.17155 c -0.10231,0.38264 -0.23999,0.91797 -0.39015,1.52292 -0.41525,1.6728 -0.4938,2.04663 -0.44339,2.1332 0.35044,-0.0925 0.90694,-0.24569 1.66708,-0.46252 1.0768,-0.3071 1.97863,-0.576 2.00402,-0.59788 0.0254,-0.0219 -0.11078,-0.11914 -0.30231,-0.216 -0.94127,-0.47623 -1.95389,-1.43791 -2.53525,-2.37972 z m 7.91735,2.88872 c -0.48002,0.14378 -1.26792,0.2589 -1.79524,0.2589 -0.0797,0 -0.17468,-0.007 -0.26458,-0.0124 -0.09,0.005 -0.18476,0.0124 -0.26459,0.0124 -0.50177,0 -1.23382,-0.10533 -1.71824,-0.23927 0.0782,0.22551 0.37262,0.76341 1.04076,1.9203 0.51989,0.90022 0.80052,1.37628 0.97255,1.64073 0.50913,-0.82005 1.98145,-3.40246 2.02934,-3.58066 z"
         style="fill:#ffd42a;stroke-width:0.06329356" />
      <path
         inkscape:connector-curvature="0"
         id="path5864"
         d="m 438.46653,116.21257 c -0.0264,0 -0.0524,0.004 -0.0724,0.0114 -0.04,0.0153 -0.53902,0.83668 -1.10891,1.82486 -0.56989,0.98821 -1.06162,1.83889 -1.09254,1.89038 -0.0939,0.15643 -0.006,0.16614 0.3875,0.0442 1.15221,-0.3574 2.5965,-0.35234 3.75393,0.0129 0.28321,0.0894 0.41714,0.11033 0.42818,0.067 0.009,-0.0347 -0.47154,-0.90623 -1.06723,-1.93701 -0.5957,-1.03078 -1.11555,-1.88692 -1.15555,-1.90227 -0.02,-0.008 -0.0466,-0.0114 -0.0729,-0.0114 z m 6.58352,2.94618 c -0.14137,0 -3.79215,1.0406 -3.85564,1.099 -0.0254,0.0234 0.11062,0.12176 0.30216,0.2188 0.98948,0.50131 2.18037,1.65103 2.63608,2.54429 0.0609,0.11939 0.13074,0.1941 0.15629,0.16771 0.0254,-0.0263 0.2571,-0.89859 0.51452,-1.9385 0.48695,-1.9672 0.5014,-2.0913 0.24659,-2.0913 z m -13.70338,0.16424 c -0.28642,0.003 -0.2781,0.0755 0.19747,1.74398 0.60465,2.12128 0.76781,2.65098 0.81668,2.65098 0.0227,0 0.12628,-0.17917 0.23071,-0.39791 0.4986,-1.04453 1.60467,-2.20526 2.63509,-2.76609 0.15078,-0.082 0.27388,-0.16662 0.27388,-0.18803 0,-0.0451 -3.97872,-1.0441 -4.15383,-1.04293 z m 7.09257,1.39718 c -0.45143,0 -0.90298,0.0355 -1.20467,0.10618 -1.03958,0.24359 -1.95102,0.74218 -2.71398,1.48449 -0.78002,0.75892 -1.32982,1.73614 -1.58175,2.81123 -0.14139,0.60338 -0.14139,1.80597 0,2.40935 0.25193,1.07509 0.80173,2.05278 1.58175,2.81173 0.89598,0.87174 1.81866,1.32295 3.23197,1.58074 0.30031,0.0548 1.52698,-0.0124 1.92261,-0.10519 1.04847,-0.24585 2.02769,-0.8001 2.77997,-1.5733 0.74232,-0.76296 1.2409,-1.67441 1.48451,-2.71398 0.14139,-0.60338 0.14139,-1.80597 0,-2.40935 -0.25193,-1.07509 -0.80173,-2.05231 -1.58176,-2.81123 -0.76295,-0.74231 -1.67439,-1.2409 -2.71398,-1.48449 -0.30169,-0.0707 -0.75323,-0.10618 -1.20467,-0.10618 z m 6.17568,3.22799 c -0.0229,-0.009 0.0197,0.17554 0.0943,0.41034 0.36894,1.16177 0.3776,2.62489 0.0228,3.75343 -0.0617,0.19634 -0.11224,0.37455 -0.11263,0.39591 -5e-4,0.0213 0.4504,-0.22205 1.00174,-0.54129 0.55134,-0.31924 1.39019,-0.8044 1.86456,-1.07766 0.47437,-0.27326 0.8755,-0.52994 0.8911,-0.57058 0.0156,-0.0406 0.0155,-0.10685 0,-0.14737 -0.0212,-0.0553 -3.53648,-2.1324 -3.76187,-2.22278 z m -12.36723,0.0685 c -0.0366,-0.0366 -3.66272,2.07953 -3.69141,2.15429 -0.0155,0.0404 -0.0154,0.10619 0,0.14638 0.0259,0.0674 3.65152,2.19471 3.68447,2.16177 0.008,-0.008 -0.0354,-0.17458 -0.0963,-0.36965 -0.14823,-0.47481 -0.26842,-1.29874 -0.26842,-1.83777 0,-0.54516 0.12083,-1.36248 0.27487,-1.85911 0.0642,-0.20684 0.10776,-0.38491 0.0968,-0.39591 z m 12.20796,4.97396 c -0.0274,0 -0.12811,0.15452 -0.22377,0.34335 -0.52646,1.03914 -1.61114,2.13572 -2.68223,2.71149 -0.30407,0.16347 -0.35166,0.23071 -0.22029,0.31061 0.11724,0.0713 3.89733,1.01427 4.09727,1.02207 0.1205,0.005 0.19408,-0.0254 0.23121,-0.0948 0.0517,-0.0967 -0.0427,-0.45076 -1.06872,-4.00399 -0.0458,-0.15862 -0.10604,-0.28878 -0.13347,-0.28878 z m -11.97526,0.13694 c -0.0236,0.0145 -0.27239,0.95207 -0.55321,2.08338 -0.42779,1.7233 -0.49943,2.07079 -0.4396,2.14289 0.0393,0.0473 0.10848,0.0864 0.15331,0.0864 0.0448,0 0.96241,-0.25157 2.03921,-0.5587 1.0768,-0.3071 1.9786,-0.57597 2.00398,-0.59786 0.0254,-0.0219 -0.11063,-0.11943 -0.30216,-0.21631 -1.04096,-0.52666 -2.1751,-1.64718 -2.70952,-2.67779 -0.0822,-0.15846 -0.16846,-0.27651 -0.19201,-0.26196 z m 3.72069,3.32425 c -0.13114,-0.003 0.0654,0.39169 1.03151,2.06452 0.96356,1.66849 1.13779,1.94295 1.23394,1.94295 0.0151,0 0.0576,-0.0188 0.0943,-0.0422 0.10458,-0.0665 2.21286,-3.74602 2.21286,-3.86209 0,-0.12991 -0.0528,-0.12897 -0.49467,0.01 -0.47502,0.14935 -1.29781,0.27042 -1.83975,0.27042 -0.54193,0 -1.36522,-0.12107 -1.84025,-0.27042 -0.19636,-0.0617 -0.37526,-0.11271 -0.39791,-0.11312 z"
         style="fill:none;stroke:#000000;stroke-width:0.53354234;stroke-linecap:round;stroke-linejoin:round;stroke-miterlimit:4;stroke-dasharray:none;paint-order:markers fill stroke" />
    </g>
    <g
       inkscape:export-ydpi="288"
       inkscape:export-xdpi="288"
       inkscape:export-filename="/home/adan/g61354.png"
       style="opacity:1"
       id="g5920"
       transform="matrix(0.20534359,0,0,0.20534359,96.976821,141.04032)">
      <path
         style="fill:#bcc2c6;stroke-width:0.26458332"
         d="m 197.95854,33.732809 c -0.95521,-0.58238 -1.63772,-1.899171 -1.63772,-3.15972 0,-0.759569 -0.0563,-0.802248 -1.05833,-0.802248 h -1.05833 v 1.070967 c 0,0.818263 -0.1652,1.22406 -0.7001,1.719791 l -0.70009,0.648825 h -6.46401 -6.46401 l -0.7734,-0.773398 c -0.56651,-0.566516 -0.77339,-1.026555 -0.77339,-1.719792 v -0.946393 h -6.11074 c -6.74857,0 -7.0959,-0.07267 -8.07476,-1.689508 -0.46141,-0.762151 -0.50474,-1.57413 -0.57693,-10.812054 l -0.0781,-9.9880207 h -0.66695 c -0.77774,0 -1.68717,-0.4389675 -2.1451,-1.0354045 -0.23563,-0.3069007 -0.32457,-2.4597782 -0.33073,-8.0049339 -0.005,-4.1718228 0.0656,-7.7778667 0.15594,-8.0134319 0.21125,-0.550486 1.47141,-1.202479 2.32415,-1.202479 h 0.66269 l 0.0781,-9.98802 c 0.07,-8.957927 0.12627,-10.076242 0.54555,-10.843438 0.96153,-1.759378 -0.87603,-1.658124 30.09188,-1.658124 30.9679,0 29.13034,-0.101254 30.09187,1.658124 0.40812,0.746763 0.47788,1.771216 0.5492,8.065313 l 0.0817,7.209895 h 0.92252 c 0.62668,0 1.13078,0.20826 1.57195,0.649432 l 0.64943,0.649432 v 7.1678027 7.16780297 l -0.64943,0.64943034 c -0.44287,0.4428675 -0.94488,0.64943299 -1.57828,0.64943299 h -0.92885 l -0.0754,13.427604 c -0.075,13.357404 -0.0785,13.432553 -0.66419,14.374359 -0.32384,0.520718 -0.89499,1.086265 -1.26922,1.256771 -0.45694,0.208198 -2.67494,0.310015 -6.75337,0.310015 h -6.07297 v 0.93918 c 0,1.152139 -0.55417,2.273546 -1.4856,3.006207 -0.65031,0.511534 -1.03841,0.552455 -5.23081,0.551539 -4.07523,-7.93e-4 -4.61602,-0.05442 -5.4042,-0.534958 z m -6.13563,-4.450127 c 0,-1.219576 -0.11388,-1.649548 -0.53868,-2.03399 -0.53043,-0.480031 -0.56687,-0.459518 -2.38027,1.339988 l -1.84159,1.827479 -1.39005,-1.332814 c -0.76452,-0.73305 -1.70206,-1.46399 -2.08342,-1.624312 -0.63202,-0.265697 -0.79009,-0.192968 -1.78594,0.821733 -0.73815,0.75212 -1.09255,1.346001 -1.09255,1.830818 v 0.71759 h 5.55625 5.55625 z m -3.06401,-1.07782 c 1.21598,-1.228802 1.50326,-1.670307 1.33423,-2.050521 -0.18946,-0.426172 -0.22799,-0.404863 -0.31987,0.176916 -0.10886,0.689338 -0.72635,1.322917 -1.28932,1.322917 -0.79873,0 -1.15895,-0.828233 -1.15895,-2.664732 0,-1.008251 -0.0957,-1.833184 -0.21268,-1.833184 -0.11698,0 -0.5827,0.386953 -1.03493,0.859895 -0.65787,0.687988 -0.84016,1.129604 -0.9118,2.209004 -0.0811,1.222049 -0.002,1.450432 0.83649,2.424999 0.50932,0.59174 0.9893,1.085971 1.06662,1.098288 0.0773,0.01233 0.83791,-0.682295 1.69021,-1.543582 z m -6.92791,-2.994192 -1.12058,-1.120589 v 2.241176 2.241177 l 1.12058,-1.12059 1.12059,-1.120587 z m 9.99192,1.067671 c 0,-0.427413 -0.0782,-0.503844 -0.29445,-0.287637 -0.16195,0.161944 -0.21445,0.423881 -0.11668,0.582084 0.27368,0.442827 0.41113,0.344392 0.41113,-0.294447 z m 0,-3.50705 c 0,-2.442209 -0.20786,-3.054617 -1.03679,-3.054617 -0.40856,0 -3.19655,2.588231 -3.19655,2.967525 0,0.114112 0.33338,0.207475 0.74084,0.207475 0.91561,0 1.37583,0.432393 1.37583,1.292635 0,0.361699 0.25871,0.933022 0.57491,1.269603 0.53815,0.572836 0.60583,0.583994 1.05834,0.174485 0.40103,-0.362931 0.48342,-0.849834 0.48342,-2.857106 z m -8.67724,0.452173 c 0.41861,-0.504399 1.45819,-0.396446 1.87204,0.194398 0.36317,0.518498 0.37767,0.516482 0.99252,-0.137994 l 0.62396,-0.664181 -1.4315,-1.449506 c -0.78732,-0.797229 -1.61914,-1.449507 -1.84847,-1.449507 -0.66305,0 -2.64381,2.179646 -2.64381,2.909277 0,0.382251 0.39985,1.051149 0.99218,1.6598 l 0.99219,1.01951 0.0878,-0.875 c 0.0483,-0.481254 0.21168,-1.024311 0.36313,-1.206797 z m 18.46682,-0.407881 c 0,-0.04185 -0.59531,-0.662453 -1.32292,-1.379117 l -1.32292,-1.303025 v 1.379116 1.379117 h 1.32292 c 0.72761,0 1.32292,-0.03424 1.32292,-0.07609 z m 6.08541,-0.798047 c 0,-0.651118 -0.23549,-1.102386 -0.92301,-1.768758 l -0.92301,-0.89462 -0.66449,0.624253 c -0.51097,0.480039 -0.66449,0.888661 -0.66449,1.768758 v 1.144505 h 1.5875 1.5875 z m -19.31458,-1.110237 1.16851,-1.190625 h -2.49142 -2.49143 l 1.16851,1.190625 c 0.64268,0.654844 1.23799,1.190625 1.32292,1.190625 0.0849,0 0.68023,-0.535781 1.32291,-1.190625 z m 13.8401,-3.241145 c 0.11773,-0.181901 0.52695,-0.33073 0.90939,-0.33073 h 0.69535 l -0.76046,-0.793749 c -0.41826,-0.436563 -0.88327,-0.79375 -1.03337,-0.79375 -0.42976,0 -3.06768,2.715283 -3.06768,3.15764 0,0.218678 0.62508,1.031581 1.38907,1.806453 l 1.38906,1.408862 0.13229,-2.061999 c 0.0728,-1.134099 0.22862,-2.210826 0.34635,-2.392727 z m -20.71926,2.711979 0.6214,-0.661459 h -0.70758 c -0.57836,0 -0.70757,0.120796 -0.70757,0.661459 0,0.363802 0.0388,0.661458 0.0862,0.661458 0.0474,0 0.3658,-0.297656 0.70758,-0.661458 z m 26.19374,-1.372418 v -1.504709 l -0.79483,0.761497 -0.79483,0.761498 0.71204,0.743211 c 0.39162,0.408766 0.7493,0.743212 0.79483,0.743212 0.0455,0 0.0828,-0.677119 0.0828,-1.504709 z m -2.72142,-0.536363 c -0.42838,-0.428371 -0.45358,-0.403175 -0.45358,0.453572 0,0.856748 0.0252,0.881944 0.45358,0.453573 0.42837,-0.428374 0.42837,-0.478771 0,-0.907145 z m 1.84893,-0.921247 c 0.77891,-0.754949 0.87249,-1.001914 0.87249,-2.302508 0,-1.280223 -0.10252,-1.562639 -0.84565,-2.329346 -0.46511,-0.479872 -0.97485,-0.872493 -1.13276,-0.872493 -0.15791,0 -0.99403,0.714375 -1.85804,1.5875 l -1.57094,1.5875 1.57094,1.5875 c 0.86401,0.873125 1.68805,1.5875 1.8312,1.5875 0.14315,0 0.65289,-0.380545 1.13276,-0.845653 z m -6.47284,-3.715261 -1.38592,-1.385911 v 2.771825 2.771825 l 1.38592,-1.385911 1.38591,-1.385914 z m 3.37658,-0.598461 1.43714,-1.455208 h -3.15693 -3.15692 l 1.43713,1.455208 c 0.79042,0.800365 1.56433,1.455208 1.71979,1.455208 0.15547,0 0.92937,-0.654843 1.71979,-1.455208 z m 3.96875,-0.926042 c 0,-0.365463 -0.17639,-0.529166 -0.57017,-0.529166 -0.55341,0 -0.5561,0.01556 -0.0913,0.529166 0.26339,0.291042 0.51996,0.529167 0.57017,0.529167 0.0502,0 0.0913,-0.238125 0.0913,-0.529167 z"
         id="path5908"
         inkscape:connector-curvature="0" />
      <path
         style="fill:#4cb76d;stroke-width:0.26458332"
         d="m 200.86859,33.858267 c -0.98247,-0.484878 -1.62787,-1.519997 -1.86247,-2.987114 -0.17126,-1.070965 -0.20328,-1.100312 -1.20047,-1.100312 -0.99868,0 -1.02451,0.02386 -1.02451,0.946393 0,0.696857 -0.20741,1.153798 -0.78659,1.732984 l -0.78659,0.786587 -6.48259,-0.07933 c -6.18078,-0.07564 -6.50847,-0.105246 -7.03859,-0.635823 -0.3058,-0.306067 -0.62222,-1.050208 -0.70316,-1.653646 l -0.14716,-1.09716 h -6.01145 c -5.81941,0 -6.04005,-0.01926 -6.90662,-0.603256 -1.56464,-1.054412 -1.55618,-0.990023 -1.56044,-11.863469 l -0.004,-9.9531823 -1.12406,-0.1507702 c -0.76082,-0.1020471 -1.31658,-0.3745732 -1.71979,-0.8433408 -0.58766,-0.6831938 -0.59573,-0.7942923 -0.59573,-8.2036889 0,-7.4093974 0.008,-7.5204954 0.59573,-8.2036888 0.40321,-0.468767 0.95897,-0.741294 1.71979,-0.843342 l 1.12406,-0.150769 v -10.13132 -10.13132 l 0.6561,-0.779732 c 0.36086,-0.428852 0.98594,-0.916081 1.38907,-1.082731 0.53859,-0.222651 8.19302,-0.284373 28.86531,-0.232756 l 28.13235,0.07024 0.90567,0.988302 0.90567,0.988302 v 7.412218 7.412218 l 0.99218,0.0084 c 1.08543,0.0092 1.66714,0.343878 2.1396,1.230963 0.41644,0.781899 0.42884,13.5513198 0.014,14.46170602 -0.34323,0.75328273 -1.2623,1.23224998 -2.36453,1.23224998 h -0.7813 l -0.004,13.427604 c -0.003,10.209614 -0.0832,13.58422 -0.33459,14.081119 -0.18187,0.359436 -0.73351,0.924983 -1.22585,1.25677 -0.86696,0.584237 -1.08579,0.603256 -6.94147,0.603256 h -6.04629 v 0.819909 c 0,1.185865 -0.75878,2.605976 -1.69861,3.179088 -0.70876,0.432196 -1.36647,0.496284 -5.04826,0.491905 -3.22851,-0.0038 -4.42496,-0.09961 -5.04067,-0.403476 z m -6.4687,-8.585343 v -5.55625 h -5.55625 -5.55625 v 5.55625 5.55625 h 5.55625 5.55625 z m -8.4128,1.965873 c -0.48681,-0.340977 -0.58304,-0.661144 -0.58304,-1.93987 0,-1.741368 0.58537,-2.593025 1.56793,-2.281174 0.66155,0.209971 0.8736,0.942766 0.76366,2.639103 -0.10356,1.597816 -0.81148,2.238287 -1.74855,1.581941 z m 4.46344,-0.0944 c -0.75744,-0.757436 -0.7815,-3.166152 -0.0384,-3.838694 0.64348,-0.58234 1.55011,-0.333787 1.75461,0.481031 0.0822,0.327367 0.11221,1.168922 0.0668,1.870118 -0.0622,0.959426 -0.22514,1.369089 -0.65854,1.655508 -0.51767,0.342104 -0.6314,0.325117 -1.12448,-0.167963 z m 14.2681,-6.733873 c 0,-2.71845 0.2614,-3.266082 1.42016,-2.975252 0.78524,0.197082 0.95288,0.793403 0.95748,3.405877 l 0.004,2.050521 h 1.5875 1.5875 v -5.55625 -5.556249 h -4.49791 -4.49792 v 5.556249 5.55625 h 1.71979 1.71979 z m -1.32291,-22.2573942 v -6.7468747 h -6.61458 -6.61459 v 6.7468747 6.7468746 h 6.61459 6.61458 z m 24.87083,-6.2177081 v -6.0854167 h -6.61458 -6.61459 v 6.0854167 6.0854164 h 6.61459 6.61458 z m -10.795,3.6512499 c -0.17462,-0.174625 -0.3175,-0.5675313 -0.3175,-0.873125 0,-1.0139282 0.49645,-1.1906249 3.34521,-1.1906249 2.50071,0 2.74204,0.045453 3.12208,0.588039 0.51298,0.7323826 0.51262,0.8609224 -0.004,1.3774367 -0.52574,0.5257456 -5.6367,0.6074701 -6.14589,0.098274 z m 0,-5.5562498 c -0.17462,-0.1746248 -0.3175,-0.5675308 -0.3175,-0.8731248 0,-1.013665 0.49661,-1.190625 3.34131,-1.190625 2.1075,0 2.7983,0.092 3.12208,0.415774 0.51652,0.516514 0.51688,0.645053 0.004,1.377438 -0.38003,0.542584 -0.62136,0.5880378 -3.12207,0.5880378 -1.75516,0 -2.82209,-0.1118833 -3.02771,-0.3175 z"
         id="path5910"
         inkscape:connector-curvature="0" />
      <path
         style="fill:#5c5d60;stroke-width:0.26458332"
         d="m 198.29161,33.858267 c -0.98247,-0.484878 -1.62787,-1.519997 -1.86247,-2.987114 -0.17126,-1.070965 -0.20328,-1.100312 -1.20047,-1.100312 -0.99868,0 -1.02451,0.02386 -1.02451,0.946393 0,0.696857 -0.20741,1.153798 -0.78659,1.732984 l -0.78659,0.786587 -6.48259,-0.07933 c -6.18078,-0.07564 -6.50847,-0.105246 -7.03859,-0.635823 -0.3058,-0.306067 -0.62222,-1.050208 -0.70316,-1.653646 l -0.14716,-1.09716 h -6.01145 c -5.81941,0 -6.04005,-0.01926 -6.90662,-0.603256 -1.56464,-1.054412 -1.55618,-0.990023 -1.56044,-11.863469 l -0.004,-9.9531823 -1.12406,-0.1507702 c -0.76082,-0.1020471 -1.31658,-0.3745732 -1.71979,-0.8433408 -0.58766,-0.6831938 -0.59573,-0.7942923 -0.59573,-8.2036889 0,-7.4093974 0.008,-7.5204954 0.59573,-8.2036888 0.40321,-0.468767 0.95897,-0.741294 1.71979,-0.843342 l 1.12406,-0.150769 V -21.1606 c 0,-9.85788 0.0141,-10.133858 0.55253,-10.818365 1.23397,-1.568733 -0.4422,-1.485603 29.95458,-1.485603 h 27.88755 l 0.89517,0.603254 c 1.52279,1.02621 1.55616,1.221247 1.56044,9.120183 l 0.004,7.209895 0.99218,0.0084 c 1.08543,0.0092 1.66714,0.343878 2.1396,1.230963 0.41644,0.781899 0.42884,13.5513198 0.014,14.46170602 -0.34323,0.75328273 -1.2623,1.23224998 -2.36453,1.23224998 h -0.7813 l -0.004,13.427604 c -0.003,10.209614 -0.0832,13.58422 -0.33459,14.081119 -0.18187,0.359436 -0.73351,0.924983 -1.22585,1.25677 -0.86696,0.584237 -1.08579,0.603256 -6.94147,0.603256 h -6.04629 v 0.819909 c 0,1.185865 -0.75878,2.605976 -1.69861,3.179088 -0.70876,0.432196 -1.36647,0.496284 -5.04826,0.491905 -3.22851,-0.0038 -4.42496,-0.09961 -5.04067,-0.403476 z m -6.4687,-8.585343 v -5.55625 h -5.55625 -5.55625 v 5.55625 5.55625 h 5.55625 5.55625 z m -8.4128,1.965873 c -0.48681,-0.340977 -0.58304,-0.661144 -0.58304,-1.93987 0,-1.741368 0.58537,-2.593025 1.56793,-2.281174 0.66155,0.209971 0.8736,0.942766 0.76366,2.639103 -0.10356,1.597816 -0.81148,2.238287 -1.74855,1.581941 z m 4.46344,-0.0944 c -0.75744,-0.757436 -0.7815,-3.166152 -0.0384,-3.838694 0.64348,-0.58234 1.55011,-0.333787 1.75461,0.481031 0.0822,0.327367 0.11221,1.168922 0.0668,1.870118 -0.0622,0.959426 -0.22514,1.369089 -0.65854,1.655508 -0.51767,0.342104 -0.6314,0.325117 -1.12448,-0.167963 z m -9.54439,-3.967842 c 0,-4.146465 0.0108,-4.225896 0.68497,-5.027083 l 0.68498,-0.814052 h 6.60309 6.60309 l 0.64943,0.649433 c 0.63719,0.637183 0.64943,0.731983 0.64943,5.027084 l 1e-5,4.37765 h 1.04764 1.04765 l 0.0768,-8.357584 0.0768,-8.357587 0.74236,-0.638246 c 0.73118,-0.6286368 0.82213,-0.6382491 6.03963,-0.6382491 h 5.29726 l 0.7734,0.7733981 0.77339,0.773396 v 8.227403 8.227404 l 6.01927,-0.07112 6.01928,-0.07111 0.0686,-13.427603 0.0686,-13.427604 h -5.43841 c -5.42134,0 -5.44045,-0.002117 -6.08784,-0.64943299 -0.72602,-0.72601928 -0.75909,-1.22750781 -0.69873,-10.59535801 0.0392,-6.079546 -0.42927,-5.688542 6.81518,-5.688542 h 5.41345 l -0.0704,-7.209895 -0.0704,-7.209895 H 194.20415 166.2906 l -0.0693,9.98802 -0.0693,9.98802 h 1.06151 1.06152 v -2.460625 c 0,-1.561041 0.11607,-2.5767 0.3175,-2.778125 0.33487,-0.33487 8.49625,-0.472293 9.31815,-0.1569 0.60686,0.232873 0.54102,1.607304 -0.0933,1.946758 -0.28147,0.150641 -0.99585,0.273892 -1.5875,0.273892 h -1.07572 v 1.058334 1.058333 h 1.27 c 1.3807,0 1.905,0.327688 1.905,1.190625 0,0.8629371 -0.5243,1.1906248 -1.905,1.1906248 h -1.27 v 1.0583333 1.0583333 h 1.30791 c 1.04826,0 1.38899,0.1157473 1.71629,0.5830411 0.34756,0.4962101 0.35508,0.6636781 0.0505,1.1244791 -0.2684,0.4060825 -0.69746,0.5614299 -1.71629,0.621411 l -1.35843,0.079973 v 1.0445062 1.0445061 h 1.27 c 1.3807,0 1.905,0.3276865 1.905,1.190625 0,0.86293848 -0.5243,1.19062492 -1.905,1.19062492 h -1.27 V 0.402092 1.4604253 h 1.27 c 1.3807,0 1.905,0.3276864 1.905,1.1906249 0,0.8629385 -0.5243,1.190625 -1.905,1.190625 h -1.27 v 1.0583332 1.0583333 h 1.27 c 1.3807,0 1.905,0.3276865 1.905,1.190625 0,0.8629385 -0.5243,1.1906249 -1.905,1.1906249 h -1.27 v 1.0583333 1.0583331 h 1.27 c 1.3807,0 1.905,0.327687 1.905,1.190625 0,1.091462 -0.41869,1.190625 -5.02709,1.190625 -3.06328,0 -4.48814,-0.09606 -4.70958,-0.3175 -0.20143,-0.201425 -0.3175,-1.217083 -0.3175,-2.7781248 V 7.2812583 h -1.05833 -1.05834 v 9.8777767 c 0,5.432779 0.0794,9.957154 0.17639,10.054166 0.097,0.09701 2.83545,0.17639 6.08542,0.17639 h 5.90903 z m -8.09138,1.840024 c -0.30291,-0.122542 -0.86845,-0.60038 -1.25677,-1.061863 -0.54986,-0.653476 -0.70602,-1.119291 -0.70602,-2.105999 0,-3.965718 5.38198,-4.676253 6.63614,-0.876112 0.24207,0.733499 0.2149,1.122627 -0.14404,2.062483 -0.70123,1.836158 -2.71299,2.716265 -4.52931,1.981491 z m 2.26028,-2.634909 c 0.34586,-0.646229 0.11078,-1.274522 -0.55604,-1.486162 -0.66776,-0.211936 -1.28578,0.307404 -1.28578,1.080468 0,0.968188 1.37831,1.271784 1.84182,0.405694 z m 42.63678,2.437122 c -1.26586,-0.623567 -2.05449,-2.420342 -1.65197,-3.763806 1.15746,-3.863269 6.65045,-3.220384 6.65045,0.778351 0,2.645087 -2.57151,4.180983 -4.99848,2.985455 z m 2.19872,-2.087721 c 0.52443,-0.201242 0.54598,-1.256316 0.0343,-1.680946 -0.46248,-0.383828 -1.35881,-0.147293 -1.5748,0.415576 -0.0857,0.223285 -0.033,0.635471 0.11716,0.915969 0.28156,0.526111 0.69702,0.628102 1.42331,0.349401 z M 186.39895,6.9616893 c -1.1552,-0.6625034 -1.1738,-0.8020923 -1.1738,-8.8085555 0,-8.0620895 0.016,-8.1777278 1.22255,-8.8203238 0.80787,-0.430276 14.70504,-0.430276 15.51291,0 1.20594,0.642286 1.22212,0.7588306 1.23096,8.8629508 l 0.008,7.7155407 -0.81405,0.6849797 -0.81405,0.6849771 -7.32189,-0.00804 c -5.0091,-0.00551 -7.48904,-0.1039072 -7.85105,-0.3115257 z m 14.41979,-8.8085555 v -6.7468747 h -6.61458 -6.61459 v 6.7468747 6.7468746 h 6.61459 6.61458 z M 170.19843,-22.479758 c -1.12887,-0.49075 -1.92121,-1.83009 -1.92245,-3.249638 -0.003,-3.034234 4.30756,-4.40972 6.06857,-1.936613 1.20218,1.688306 0.77514,3.781737 -1.01546,4.977932 -1.02447,0.68439 -1.90134,0.742739 -3.13066,0.208319 z m 2.1587,-2.404756 c 0.50528,-0.505278 0.51439,-0.671141 0.0702,-1.278575 -0.49329,-0.67462 -1.61375,-0.466898 -1.72528,0.31985 -0.16589,1.17026 0.8532,1.760589 1.65506,0.958725 z m 5.23119,2.479524 c -0.70311,-0.703109 -0.19224,-2.06375 0.77485,-2.06375 0.54549,0 1.2889,0.686728 1.2889,1.190625 0,0.92546 -1.41342,1.523448 -2.06375,0.873125 z m 4.64344,0.03172 c -0.53151,-0.309575 -0.6134,-1.310098 -0.14552,-1.777974 0.48607,-0.486071 1.4837,-0.377788 1.78986,0.194273 0.37211,0.695293 0.34567,0.966148 -0.14189,1.453703 -0.47832,0.478329 -0.84929,0.510427 -1.50245,0.129998 z m 4.49792,0 c -0.94183,-0.548564 -0.4047,-2.095474 0.7276,-2.095474 1.1142,0 1.574,1.166325 0.77485,1.965476 -0.47833,0.478329 -0.8493,0.510427 -1.50245,0.129998 z m 4.45067,-0.129998 c -0.79916,-0.799151 -0.33935,-1.965476 0.77485,-1.965476 1.1142,0 1.574,1.166325 0.77485,1.965476 -0.22868,0.228676 -0.57736,0.415774 -0.77485,0.415774 -0.1975,0 -0.54618,-0.187098 -0.77485,-0.415774 z m 4.49791,0 c -0.79915,-0.799151 -0.33935,-1.965476 0.77485,-1.965476 1.1142,0 1.57401,1.166325 0.77485,1.965476 -0.22867,0.228676 -0.57735,0.415774 -0.77485,0.415774 -0.19749,0 -0.54617,-0.187098 -0.77485,-0.415774 z m 4.49792,0 c -0.48756,-0.487555 -0.51399,-0.75841 -0.14188,-1.453703 0.30615,-0.572061 1.30378,-0.680344 1.78985,-0.194273 0.48608,0.486071 0.37779,1.4837 -0.19427,1.789857 -0.69529,0.37211 -0.96615,0.345674 -1.4537,-0.141881 z m 4.49792,0 c -0.48756,-0.487555 -0.51399,-0.75841 -0.14189,-1.453703 0.30616,-0.572061 1.30379,-0.680344 1.78986,-0.194273 0.48607,0.486071 0.37779,1.4837 -0.19427,1.789857 -0.6953,0.37211 -0.96615,0.345674 -1.4537,-0.141881 z m 4.49791,0 c -0.22867,-0.228676 -0.41577,-0.577359 -0.41577,-0.774851 0,-0.197493 0.1871,-0.546176 0.41577,-0.774851 0.79915,-0.799152 1.96548,-0.339351 1.96548,0.774851 0,1.114201 -1.16633,1.574002 -1.96548,0.774851 z m 6.01475,-0.10175 c -2.37132,-1.445885 -2.45684,-4.445592 -0.16709,-5.860736 2.15609,-1.332535 5.11484,0.251022 5.11266,2.736354 -0.001,1.448551 -0.80331,2.769016 -1.98068,3.260952 -1.22559,0.512086 -1.95626,0.478429 -2.96489,-0.13657 z m 2.28864,-2.246038 c 0.17451,-0.210271 0.27839,-0.656756 0.23083,-0.992187 -0.11153,-0.786748 -1.23198,-0.99447 -1.72527,-0.31985 -0.44417,0.607434 -0.43506,0.773297 0.0702,1.278575 0.51824,0.518243 1.01225,0.52985 1.42422,0.03346 z m -39.74156,-2.020131 c -0.5315,-0.309575 -0.61339,-1.310097 -0.14552,-1.777974 1.02764,-1.027641 2.6422,0.456867 1.66785,1.533509 -0.53499,0.591157 -0.84235,0.640515 -1.52233,0.244465 z m 4.49792,0 c -0.53151,-0.309575 -0.6134,-1.310097 -0.14552,-1.777974 1.02764,-1.027641 2.64219,0.456867 1.66785,1.533509 -0.53499,0.591157 -0.84235,0.640515 -1.52233,0.244465 z m 4.49792,0 c -0.94183,-0.548564 -0.4047,-2.095474 0.7276,-2.095474 1.1142,0 1.574,1.166325 0.77485,1.965476 -0.47833,0.47833 -0.8493,0.510427 -1.50245,0.129998 z m 4.45067,-0.129998 c -0.79916,-0.799151 -0.33935,-1.965476 0.77485,-1.965476 1.1142,0 1.574,1.166325 0.77485,1.965476 -0.22868,0.228676 -0.57736,0.415774 -0.77485,0.415774 -0.1975,0 -0.54618,-0.187098 -0.77485,-0.415774 z m 4.49791,0 c -0.79915,-0.799151 -0.33935,-1.965476 0.77485,-1.965476 1.1142,0 1.57401,1.166325 0.77485,1.965476 -0.22867,0.228676 -0.57735,0.415774 -0.77485,0.415774 -0.19749,0 -0.54617,-0.187098 -0.77485,-0.415774 z m 4.49792,0 c -0.79915,-0.799151 -0.33935,-1.965476 0.77485,-1.965476 1.1142,0 1.574,1.166325 0.77485,1.965476 -0.22867,0.228676 -0.57736,0.415774 -0.77485,0.415774 -0.19749,0 -0.54618,-0.187098 -0.77485,-0.415774 z m 4.49792,0 c -0.48756,-0.487555 -0.51399,-0.75841 -0.14189,-1.453703 0.30616,-0.572061 1.30379,-0.680344 1.78986,-0.194273 0.48607,0.486072 0.37779,1.483701 -0.19427,1.789858 -0.6953,0.37211 -0.96615,0.345674 -1.4537,-0.141882 z m 4.47804,-0.114467 c -0.97435,-1.076642 0.64021,-2.56115 1.66785,-1.533509 0.48607,0.486072 0.37779,1.483701 -0.19428,1.789858 -0.71761,0.384057 -0.92697,0.347637 -1.47357,-0.256349 z m -7.01049,47.526176 c 0,-2.71845 0.2614,-3.266082 1.42016,-2.975252 0.78524,0.197082 0.95288,0.793403 0.95748,3.405877 l 0.004,2.050521 h 1.5875 1.5875 v -5.55625 -5.556249 h -4.49791 -4.49792 v 5.556249 5.55625 h 1.71979 1.71979 z m 23.54792,-28.4751023 v -6.0854167 h -6.70808 -6.70809 l 0.0503,5.6223959 c 0.0276,3.0923176 0.0697,5.830755 0.0935,6.0854164 0.0399,0.4274714 0.55107,0.4630208 6.65782,0.4630208 h 6.61458 z m -10.795,3.6512499 c -0.17462,-0.174625 -0.3175,-0.5675313 -0.3175,-0.873125 0,-1.0139282 0.49645,-1.1906249 3.34521,-1.1906249 2.50071,0 2.74204,0.045453 3.12208,0.588039 0.51298,0.7323826 0.51262,0.8609224 -0.004,1.3774367 -0.52574,0.5257456 -5.6367,0.6074701 -6.14589,0.098274 z m 0,-5.5562498 c -0.17462,-0.1746248 -0.3175,-0.5675308 -0.3175,-0.8731248 0,-1.013665 0.49661,-1.190625 3.34131,-1.190625 2.1075,0 2.7983,0.092 3.12208,0.415774 0.51652,0.516514 0.51688,0.645053 0.004,1.377438 -0.38003,0.542584 -0.62136,0.5880378 -3.12207,0.5880378 -1.75516,0 -2.82209,-0.1118833 -3.02771,-0.3175 z"
         id="path5912"
         inkscape:connector-curvature="0" />
      <rect
         style="fill:#ffffff;fill-opacity:1;stroke:none;stroke-width:4.25206709;stroke-linecap:butt;stroke-linejoin:bevel;stroke-miterlimit:4;stroke-dasharray:none;stroke-opacity:1;paint-order:markers stroke fill"
         id="rect5914"
         width="11.11249"
         height="11.296329"
         x="180.71042"
         y="19.441561"
         rx="0.52916664"
         ry="0.6074146" />
      <rect
         ry="0.71767306"
         rx="0.52916664"
         y="10.338571"
         x="197.64413"
         height="13.346849"
         width="11.11249"
         id="rect5916"
         style="fill:#ffffff;fill-opacity:1;stroke:none;stroke-width:4.62190342;stroke-linecap:butt;stroke-linejoin:bevel;stroke-miterlimit:4;stroke-dasharray:none;stroke-opacity:1;paint-order:markers stroke fill" />
      <path
         style="fill:#010202;stroke-width:0.26458332"
         d="m 198.50884,33.876488 c -1.08116,-0.470011 -1.92117,-1.830424 -1.92245,-3.11346 l -9.9e-4,-0.992187 h -1.19062 c -1.0998,0 -1.19062,0.05146 -1.19062,0.674597 0,0.863013 -0.6489,2.12362 -1.20248,2.336049 -0.23557,0.09039 -3.3356,0.164353 -6.88896,0.164353 -6.10787,0 -6.48954,-0.02889 -6.98981,-0.529166 -0.34985,-0.349846 -0.52917,-0.881944 -0.52917,-1.570191 v -1.041024 l -6.28385,-0.08346 c -5.71743,-0.07593 -6.3527,-0.130067 -7.04756,-0.600557 -1.43959,-0.974746 -1.48526,-1.349073 -1.48526,-12.174399 V 7.016675 h -0.9044 c -2.44263,0 -2.53518,-0.3235616 -2.53518,-8.8635412 0,-8.5399808 0.0925,-8.8635408 2.53518,-8.8635408 h 0.9044 v -9.930373 c 0,-10.825327 0.0457,-11.199653 1.48526,-12.174399 0.74592,-0.505063 1.41973,-0.517102 28.94183,-0.517102 27.52209,0 28.1959,0.01204 28.94182,0.517102 1.38021,0.934538 1.48526,1.587306 1.48526,9.229145 v 6.985119 l 1.09716,0.14716 c 0.60344,0.08094 1.34758,0.397578 1.65364,0.703645 0.53806,0.538054 0.55649,0.792605 0.55649,7.6855357 0,6.89293 -0.0184,7.14748297 -0.55649,7.68553696 -0.30606,0.3060647 -1.0502,0.62270479 -1.65364,0.70364347 l -1.09716,0.14716124 V 13.674594 c 0,14.373381 -0.007,14.445905 -1.48526,15.446853 -0.69486,0.47049 -1.33013,0.524624 -7.04756,0.600557 l -6.28385,0.08346 v 1.137634 c 0,1.352539 -0.72937,2.421466 -2.0203,2.960851 -1.21859,0.509159 -8.09784,0.488821 -9.28543,-0.02746 z m 8.98028,-2.334789 c 0.11038,-0.173609 0.20251,-1.655103 0.20473,-3.292213 l 0.004,-2.976562 h -4.50631 -4.50631 l 0.0745,3.101554 c 0.0679,2.825671 0.12295,3.12574 0.61872,3.373438 0.77188,0.385648 7.84869,0.205713 8.11058,-0.206217 z m -17.3146,-0.686376 1.92349,-0.02615 -0.0714,-5.622396 -0.0714,-5.622395 -5.6224,-0.07141 -5.62239,-0.07141 v 5.684549 5.684546 l 2.71197,0.0754 c 1.49159,0.04147 3.18823,0.0574 3.77032,0.0354 0.58208,-0.02199 1.9239,-0.05176 2.98182,-0.06615 z m -6.9725,-3.82433 c -0.0757,-0.197228 -0.10171,-1.119963 -0.0578,-2.050521 0.0739,-1.566743 0.12761,-1.698675 0.7264,-1.783196 0.39749,-0.0561 0.77978,0.09081 0.99219,0.381299 0.41276,0.564486 0.45654,2.580084 0.0717,3.299243 -0.31543,0.589388 -1.52401,0.696248 -1.73241,0.153175 z m 4.49792,0 c -0.0757,-0.197228 -0.10171,-1.119963 -0.0578,-2.050521 0.0725,-1.537292 0.1355,-1.699823 0.68964,-1.778378 0.9723,-0.137835 1.3745,0.405268 1.3745,1.856039 0,0.719352 -0.12325,1.53821 -0.27389,1.819685 -0.31543,0.589388 -1.52401,0.696248 -1.73241,0.153175 z m -9.85161,0.383095 c 0.39477,-0.02172 0.45473,-0.521795 0.52917,-4.413638 l 0.084,-4.389139 0.74236,-0.637944 c 0.73997,-0.635895 0.76277,-0.637943 7.09795,-0.637943 h 6.3556 l 0.7734,0.773399 0.7734,0.773395 v 4.253688 4.253685 h 1.19062 1.19062 v -8.334375 c 0,-7.94581 0.0244,-8.358732 0.52244,-8.85681 0.78033,-0.7803331 1.32652,-0.8415735 6.69981,-0.7511972 4.72682,0.079502 4.96061,0.1084395 5.5372,0.6853212 0.59726,0.597561 0.60262,0.668046 0.67884,8.929687 l 0.0768,8.327374 0.84921,0.03055 c 4.1427,0.149053 10.85592,-0.03617 11.18415,-0.308571 0.32189,-0.267141 0.38069,-2.35441 0.38069,-13.512712 V 0.402092 h -5.30906 c -5.36622,0 -6.0753,-0.10817224 -6.78721,-1.03540449 -0.2347,-0.30568105 -0.32232,-2.32584881 -0.32232,-7.43126181 0,-5.1054117 0.0876,-7.1255797 0.32232,-7.4312607 0.71191,-0.927234 1.42099,-1.035406 6.78721,-1.035406 h 5.30906 v -6.996455 c 0,-6.930002 -0.006,-7.000367 -0.58804,-7.408333 -0.52294,-0.366281 -3.5919,-0.411877 -27.72237,-0.411877 -24.13048,0 -27.19944,0.0456 -27.72238,0.411877 l -0.58804,0.411878 v 9.77458 9.77458 h 1.19062 1.19063 v -2.460625 c 0,-1.561041 0.11607,-2.5767 0.3175,-2.778125 0.22156,-0.221561 1.65086,-0.3175 4.7301,-0.3175 4.74748,0 5.14016,0.108802 4.96073,1.3745 -0.0768,0.5415 -0.26444,0.624707 -1.67396,0.742167 l -1.5875,0.132292 -0.0814,1.124479 -0.0814,1.124479 h 1.43802 c 1.58597,0 2.12784,0.374995 1.98615,1.374499 -0.0768,0.5415 -0.26444,0.624708 -1.67396,0.7421675 l -1.5875,0.1322917 -0.0814,1.1244791 -0.0814,1.1244791 h 1.22323 c 1.56212,0 2.24678,0.3676472 2.24678,1.2064814 0,0.77647 -0.8132,1.1747685 -2.39848,1.1747685 -1.03824,0 -1.04111,0.00292 -1.04111,1.0583333 v 1.0583332 h 1.20802 c 1.53608,0 2.23157,0.3710676 2.23157,1.190625 0,0.8195574 -0.69549,1.19062492 -2.23157,1.19062492 h -1.20802 V 0.402092 1.4604253 h 1.20802 c 1.53608,0 2.23157,0.3710675 2.23157,1.1906249 0,0.8195574 -0.69549,1.190625 -2.23157,1.190625 h -1.20802 v 1.0583332 1.0583333 h 1.20802 c 1.53608,0 2.23157,0.3710675 2.23157,1.190625 0,0.8217799 -0.69603,1.1906249 -2.24678,1.1906249 h -1.22323 l 0.0814,1.1244791 0.0814,1.1244793 1.5875,0.132291 c 1.40952,0.11746 1.5972,0.200668 1.67396,0.742167 0.17943,1.265698 -0.21325,1.3745 -4.96073,1.3745 -3.07924,0 -4.50854,-0.09594 -4.7301,-0.3175 -0.20143,-0.201425 -0.3175,-1.217083 -0.3175,-2.7781248 V 7.2812583 h -1.19063 -1.19062 v 9.7745807 c 0,9.24029 0.027,9.793478 0.49366,10.120312 0.3714,0.26011 1.79655,0.335418 5.75468,0.304083 2.89357,-0.02291 5.46138,-0.05267 5.70625,-0.06615 z m -7.6499,-2.533432 c -1.64482,-0.71505 -2.39409,-2.957209 -1.54009,-4.608664 0.71773,-1.38794 2.4981,-2.103474 4.00026,-1.607716 2.90709,0.959426 3.04543,5.059396 0.21067,6.243835 -1.08051,0.451467 -1.58101,0.446323 -2.67084,-0.02746 z m 2.41414,-2.584294 c 0.39664,-0.633468 -0.087,-1.36471 -0.97303,-1.471065 -0.87993,-0.105627 -1.4103,0.73936 -0.97481,1.553067 0.354,0.661461 1.51288,0.612674 1.94784,-0.082 z m 42.8681,2.600481 c -2.7802,-1.210501 -2.60435,-5.284264 0.26904,-6.232567 1.50217,-0.495758 3.28253,0.219776 4.00026,1.607716 0.86841,1.679329 0.096,3.912053 -1.59832,4.61998 -1.11172,0.464502 -1.61322,0.465418 -2.67098,0.0049 z m 2.2714,-2.534335 c 0.20121,-0.375971 0.20121,-0.682363 0,-1.058334 -0.4998,-0.933886 -2.11667,-0.529672 -2.11667,0.529167 0,1.058839 1.61687,1.463053 2.11667,0.529167 z M 187.26581,7.084149 c -0.66712,-0.066757 -1.15832,-0.3186509 -1.52135,-0.7801689 -0.50978,-0.6480809 -0.53614,-1.0497713 -0.53614,-8.1717722 v -7.4901906 l 0.63855,-0.7423583 0.63855,-0.742358 h 7.71874 7.71873 l 0.63855,0.742358 0.63855,0.7423583 v 7.5111165 7.5111156 l -0.63838,0.74236 -0.63839,0.7423573 -6.83609,0.01688 c -3.75986,0.00929 -7.27945,-0.02748 -7.82132,-0.081703 z m 13.81751,-8.9310152 v -6.7468747 h -6.87916 -6.87917 v 6.7468747 6.7468746 h 6.87917 6.87916 z M 170.21077,-22.598359 c -2.71949,-1.242835 -2.50524,-5.087376 0.33874,-6.078602 1.37353,-0.478723 2.33486,-0.231144 3.45608,0.890067 0.73341,0.733414 0.88332,1.080032 0.88008,2.034925 -0.009,2.736397 -2.26226,4.25622 -4.6749,3.15361 z m 2.4018,-2.465694 c 0.39664,-0.633468 -0.087,-1.364708 -0.97303,-1.471065 -0.87993,-0.105627 -1.4103,0.73936 -0.97481,1.553068 0.354,0.661462 1.51288,0.612674 1.94784,-0.082 z m 5.07403,2.560789 c -0.22868,-0.228676 -0.41578,-0.577359 -0.41578,-0.774851 0,-0.447812 0.72159,-1.190625 1.15661,-1.190625 0.96219,0 1.31213,1.64504 0.44829,2.107357 -0.66187,0.354223 -0.69724,0.350003 -1.18912,-0.141881 z m 4.49791,0 c -0.53139,-0.531389 -0.52723,-1.022465 0.0132,-1.562918 0.54224,-0.542239 1.12004,-0.432497 1.60931,0.305652 0.34347,0.518186 0.32675,0.630907 -0.16682,1.124479 -0.6577,0.657695 -0.90797,0.680524 -1.45571,0.132787 z m 4.59063,-0.07694 c -0.69564,-0.563299 -0.51118,-1.503467 0.34852,-1.776325 0.76166,-0.241742 1.63508,0.773808 1.26317,1.468726 -0.38234,0.714416 -0.97063,0.826694 -1.61169,0.307599 z m 4.50956,0.0094 c -0.42351,-0.342937 -0.5373,-0.633306 -0.40791,-1.040959 0.26501,-0.834972 1.16281,-1.022492 1.80773,-0.377572 0.99641,0.996413 -0.29943,2.309576 -1.39982,1.418531 z m 4.52635,-0.02649 c -0.6577,-0.657696 -0.68053,-0.907967 -0.13279,-1.455704 0.53139,-0.531389 1.02247,-0.527237 1.56292,0.01322 0.54224,0.542238 0.4325,1.120046 -0.30565,1.609313 -0.51819,0.34347 -0.63091,0.326746 -1.12448,-0.166825 z m 4.48459,-0.01333 c -0.66406,-0.664051 -0.6675,-0.862687 -0.025,-1.444112 0.61189,-0.553758 1.50615,-0.353132 1.74229,0.390882 0.19254,0.606624 0.019,0.945669 -0.67367,1.316391 -0.3973,0.212629 -0.6253,0.155136 -1.0436,-0.263161 z m 4.47245,-0.02546 c -0.49357,-0.493571 -0.51029,-0.606293 -0.16682,-1.124479 0.48927,-0.738149 1.06707,-0.84789 1.60931,-0.305652 0.54045,0.540453 0.54461,1.031529 0.0132,1.562918 -0.54773,0.547738 -0.798,0.524908 -1.4557,-0.132787 z m 4.71575,0.262785 c -0.8185,-0.476736 -0.43454,-2.095474 0.49704,-2.095474 0.43502,0 1.15661,0.742813 1.15661,1.190625 0,0.375865 -0.70159,1.196449 -1.01109,1.182579 -0.0987,-0.0044 -0.3879,-0.129404 -0.64256,-0.27773 z m 6.23965,-0.01109 c -1.35024,-0.38037 -2.20475,-1.616534 -2.20475,-3.189472 0,-1.15253 0.11672,-1.445797 0.87871,-2.207791 2.76967,-2.769663 7.1303,0.378051 5.33452,3.85071 -0.65067,1.258253 -2.49961,1.971609 -4.00848,1.546552 z m 2.02858,-2.613547 c 0.20121,-0.37597 0.20121,-0.682363 0,-1.058333 -0.4998,-0.933887 -2.11667,-0.529671 -2.11667,0.529167 0,1.058837 1.61687,1.463054 2.11667,0.529166 z m -39.91117,-2.011961 c -0.76573,-0.536336 -0.72572,-1.368051 0.0836,-1.736777 0.81047,-0.369277 1.46304,0.07395 1.46304,0.993701 0,0.865289 -0.81385,1.256311 -1.54659,0.743076 z m 4.43632,-0.06825 c -0.69564,-0.563298 -0.51118,-1.503466 0.34852,-1.776324 0.76167,-0.241743 1.63508,0.773807 1.26318,1.468726 -0.38235,0.714416 -0.97064,0.826694 -1.6117,0.307598 z m 4.49792,0 c -0.69564,-0.563298 -0.51118,-1.503466 0.34852,-1.776324 0.76166,-0.241743 1.63508,0.773807 1.26317,1.468726 -0.38234,0.714416 -0.97063,0.826694 -1.61169,0.307598 z m 4.49792,0 c -0.99191,-0.803199 -0.0615,-2.208052 1.15357,-1.74179 0.56507,0.216837 0.76989,0.851635 0.46101,1.428789 -0.38512,0.719605 -0.97196,0.833368 -1.61458,0.313001 z m 4.53799,-0.01706 c -0.6577,-0.657695 -0.68053,-0.907966 -0.13279,-1.455703 0.53139,-0.53139 1.02247,-0.527237 1.56292,0.01321 0.54224,0.542239 0.4325,1.120046 -0.30565,1.609314 -0.51819,0.343469 -0.63091,0.326746 -1.12448,-0.166826 z m 4.49792,0 c -0.6577,-0.657695 -0.68053,-0.907966 -0.13279,-1.455703 0.53139,-0.53139 1.02247,-0.527237 1.56292,0.01321 0.54224,0.542239 0.43249,1.120046 -0.30566,1.609314 -0.51818,0.343469 -0.6309,0.326746 -1.12447,-0.166826 z m 4.47852,-0.01939 c -0.51229,-0.512286 -0.53054,-0.624406 -0.18622,-1.143874 0.49282,-0.743511 1.06782,-0.847146 1.62253,-0.292436 0.55471,0.55471 0.45107,1.129707 -0.29244,1.622529 -0.51947,0.344319 -0.63159,0.326067 -1.14387,-0.186219 z m 4.66778,0.216838 c -0.53759,-0.30085 -0.5674,-1.364621 -0.0503,-1.793801 0.46873,-0.389015 1.35981,-0.144702 1.58175,0.433683 0.39173,1.020824 -0.58606,1.889202 -1.53148,1.360118 z m -7.31362,47.55935 c 0,-2.533097 0.28068,-3.326191 1.17713,-3.326191 0.68973,0 0.91976,0.737294 0.99507,3.18932 l 0.0768,2.499222 1.65365,0.07877 1.65364,0.07877 V 17.34805 11.514591 h -4.49791 -4.49792 v 5.820833 5.820834 h 1.71979 1.71979 z M 172.77291,-1.8468662 V -14.149991 h -1.14206 -1.14205 l 0.01,12.3031248 0.01,12.3031242 h 1.13224 1.13225 z m -4.49792,0 v -6.7468747 h -2.77813 -2.77812 v 6.7468747 6.7468746 h 2.77812 2.77813 z m 57.54687,-6.2177081 v -6.2177077 l -6.81302,-0.07061 -6.81302,-0.07061 v 6.3589337 6.3589321 l 6.81302,-0.070612 6.81302,-0.070612 z m -10.78177,3.6829734 c -0.25466,-0.1483254 -0.46302,-0.4873148 -0.46302,-0.7533084 0,-0.9245123 0.61787,-1.0992008 3.61011,-1.0206698 2.82051,0.074025 2.87383,0.087011 2.96346,0.7220134 0.14765,1.0460831 -0.56771,1.3387017 -3.2507,1.3296953 -1.31826,-0.00442 -2.60519,-0.1294024 -2.85985,-0.2777305 z m -0.13743,-5.8444621 c -0.48404,-0.484045 -0.39436,-1.222673 0.18618,-1.533369 0.28148,-0.15064 1.56841,-0.273892 2.85985,-0.273892 2.63084,0 3.34845,0.29981 3.20195,1.337741 -0.0898,0.635842 -0.13994,0.647873 -3.00683,0.7208743 -2.04234,0.052006 -3.01306,-0.023275 -3.24115,-0.2513543 z"
         id="path5918"
         inkscape:connector-curvature="0" />
    </g>
    <g
       inkscape:export-ydpi="288"
       inkscape:export-xdpi="288"
       inkscape:export-filename="/home/adan/g61354.png"
       id="g61088"
       transform="matrix(0.87856293,0,0,0.87843741,-274.92296,247.50748)"
       style="stroke:#000000;stroke-width:1.13830364">
      <circle
         r="7.2969193"
         cy="-184.87241"
         cx="377.22339"
         id="circle61126"
         style="opacity:1;fill:#ff7f2a;fill-opacity:1;stroke:none;stroke-width:0.60235238;stroke-linecap:round;stroke-miterlimit:4;stroke-dasharray:none;stroke-dashoffset:0;stroke-opacity:1" />
      <circle
         r="7.2969193"
         cy="-184.87241"
         cx="376.50208"
         id="path61005"
         style="opacity:1;fill:none;fill-opacity:1;stroke:#000000;stroke-width:0.60235238;stroke-linecap:round;stroke-miterlimit:4;stroke-dasharray:none;stroke-dashoffset:0;stroke-opacity:1" />
      <path
         inkscape:connector-curvature="0"
         id="path61007"
         d="M 369.18823,-184.87242 H 383.7235"
         style="fill:none;stroke:#000000;stroke-width:0.60235238;stroke-linecap:butt;stroke-linejoin:miter;stroke-miterlimit:4;stroke-dasharray:none;stroke-opacity:1" />
      <path
         style="fill:none;stroke:#000000;stroke-width:0.60235238;stroke-linecap:butt;stroke-linejoin:miter;stroke-miterlimit:4;stroke-dasharray:none;stroke-opacity:1"
         d="m 376.50208,-192.12336 v 14.53527"
         id="path61009"
         inkscape:connector-curvature="0" />
      <path
         inkscape:connector-curvature="0"
         id="circle61013"
         d="m 376.50209,-192.16934 a 7.2969198,7.2969198 0 0 0 -5.08384,2.06246 7.2969198,7.2969198 0 0 0 -0.19141,0.20555 7.2969199,7.2969199 0 0 0 5.24906,2.25665 7.2969199,7.2969199 0 0 0 5.2778,-2.2307 l -0.7784,-0.75105 a 7.2969198,7.2969198 0 0 0 -4.47321,-1.54291 z m -0.0262,10.1445 a 7.2969199,7.2969199 0 0 0 -5.21871,2.22444 7.2969198,7.2969198 0 0 0 5.2449,2.2249 7.2969198,7.2969198 0 0 0 5.23979,-2.22977 7.2969199,7.2969199 0 0 0 -5.26598,-2.21957 z"
         style="opacity:1;fill:none;fill-opacity:1;stroke:#000000;stroke-width:0.60235238;stroke-linecap:round;stroke-miterlimit:4;stroke-dasharray:none;stroke-dashoffset:0;stroke-opacity:1" />
      <circle
         style="opacity:1;fill:none;fill-opacity:1;stroke:#000000;stroke-width:0.5270583;stroke-linecap:round;stroke-miterlimit:4;stroke-dasharray:none;stroke-dashoffset:0;stroke-opacity:1"
         id="circle61020"
         cx="376.50208"
         cy="-184.87241"
         r="7.2969193" />
      <path
         d="m 370.48274,-185.89926 a 6.1062942,6.1062942 0 0 1 0.98632,-2.43084"
         sodipodi:open="true"
         sodipodi:end="3.7435418"
         sodipodi:start="3.310558"
         sodipodi:ry="6.1062942"
         sodipodi:rx="6.1062942"
         sodipodi:cy="-184.87241"
         sodipodi:cx="376.50208"
         sodipodi:type="arc"
         id="circle61075"
         style="opacity:1;fill:none;fill-opacity:1;stroke:#ffffff;stroke-width:0.60235238;stroke-linecap:round;stroke-miterlimit:4;stroke-dasharray:none;stroke-dashoffset:0;stroke-opacity:1" />
      <path
         transform="rotate(45)"
         inkscape:transform-center-y="-5.5049252"
         inkscape:transform-center-x="2.3102688"
         style="opacity:1;fill:none;fill-opacity:1;stroke:#ffffff;stroke-width:0.60235238;stroke-linecap:round;stroke-miterlimit:4;stroke-dasharray:none;stroke-dashoffset:0;stroke-opacity:1"
         id="path61079"
         sodipodi:type="arc"
         sodipodi:cx="135.51443"
         sodipodi:cy="-396.9566"
         sodipodi:rx="6.1062942"
         sodipodi:ry="6.1062942"
         sodipodi:start="3.310558"
         sodipodi:end="3.7435418"
         sodipodi:open="true"
         d="m 129.4951,-397.98345 a 6.1062942,6.1062942 0 0 1 0.98632,-2.43084" />
    </g>
    <g
       inkscape:export-ydpi="288"
       inkscape:export-xdpi="288"
       inkscape:export-filename="/home/adan/g61354.png"
       id="g61145"
       transform="translate(-339.99631,2.5983888)"
       style="fill:#afdde9">
      <path
         inkscape:connector-curvature="0"
         id="path61139"
         d="m 474.37114,89.200733 v -0.35101 l -0.41332,-0.049 c -1.30642,-0.15472 -2.55033,-1.35972 -2.69894,-2.61453 l -0.0494,-0.41772 h -0.35102 c -0.34541,0 -0.35101,0.005 -0.35101,0.27326 0,0.39844 0.27954,1.23859 0.55826,1.67786 0.53079,0.83656 1.438,1.47492 2.42754,1.70818 0.8324,0.19621 0.87797,0.18441 0.87797,-0.22708 z m 7.85851,-0.67501 c 0.0942,-0.0159 0.66471,-0.53036 1.26781,-1.1431 1.50939,-1.53355 1.54726,-1.27966 -0.49548,-3.32238 -1.14961,-1.14962 -1.64364,-1.59201 -1.77785,-1.59201 -0.11815,0 -0.37412,0.18081 -0.70276,0.49637 l -0.51692,0.49639 -0.20171,-0.18951 -0.20173,-0.18949 0.23856,-0.2465 c 0.2537,-0.26219 0.4882,-0.74305 0.4882,-1.00119 0,-0.0858 0.0938,-0.33688 0.20838,-0.5578 0.6606,-1.27328 -0.26605,-2.28304 -1.53539,-1.67309 -0.222,0.1067 -0.57418,0.23774 -0.78262,0.29125 -0.20973,0.0538 -0.52621,0.22332 -0.70865,0.37947 l -0.32967,0.2822 -0.19654,-0.18465 -0.19655,-0.18463 0.48261,-0.50258 c 0.50607,-0.52702 0.56348,-0.69293 0.36807,-1.06384 -0.0629,-0.11953 -0.78061,-0.87841 -1.59472,-1.68637 -1.23908,-1.22973 -1.51873,-1.46934 -1.71675,-1.47091 -0.19889,-0.001 -0.40106,0.16817 -1.27045,1.06657 -0.56864,0.58762 -1.08801,1.14844 -1.15415,1.24625 -0.22962,0.33957 -0.0732,0.5681 1.48942,2.17662 1.77869,1.83088 1.75193,1.81859 2.47478,1.13496 0.42767,-0.40446 0.44225,-0.41102 0.59891,-0.26925 0.0883,0.0799 0.16054,0.18372 0.16054,0.23067 0,0.047 -0.16986,0.25785 -0.37749,0.46865 -0.20762,0.21078 -0.36158,0.39575 -0.34211,0.41102 0.0196,0.0153 0.21517,0.13083 0.43488,0.25677 0.54511,0.31247 1.40811,1.20621 1.69638,1.75684 l 0.23752,0.45363 0.42135,-0.41612 0.42136,-0.41612 0.20479,0.19239 0.20479,0.1924 -0.39787,0.40685 c -0.37459,0.38305 -0.44236,0.52403 -0.41999,0.87375 0.0122,0.19104 2.85509,3.13063 3.13381,3.24044 0.1188,0.0468 0.29306,0.072 0.38724,0.0561 z m -7.85851,-0.6241 c 0,-0.34108 -0.0129,-0.36234 -0.22136,-0.36401 -0.62742,-0.005 -1.38351,-0.67456 -1.55124,-1.37374 l -0.0949,-0.39536 h -0.35421 c -0.1948,0 -0.3542,0.0286 -0.3542,0.0636 0,0.26388 0.28658,1.05962 0.48599,1.34944 0.39685,0.57681 1.28491,1.08231 1.90141,1.08231 0.16969,0 0.18844,-0.0361 0.18844,-0.36223 z m 3.43844,-0.29642 c 0.25971,-0.27826 0.42562,-0.82072 0.42324,-1.38397 -0.009,-2.12767 -2.39781,-4.41786 -4.39331,-4.21192 -0.60265,0.0622 -1.13994,0.31844 -1.24454,0.59356 -0.14634,0.38489 0.12413,1.15142 0.71339,2.02183 l 0.23379,0.34533 0.21735,-0.28495 0.21736,-0.28497 -0.20285,-0.26594 c -0.1115,-0.14627 -0.25911,-0.40065 -0.32791,-0.56528 -0.11185,-0.26774 -0.11209,-0.30432 -0.002,-0.34645 0.20895,-0.0802 0.46415,0.0327 1.01605,0.4494 1.09834,0.8293 2.64813,2.65658 2.64813,3.12231 0,0.28165 -0.30668,0.23017 -0.83542,-0.14021 -0.25279,-0.17708 -0.50605,-0.32197 -0.56278,-0.32197 -0.0567,0 -0.18406,0.0861 -0.28296,0.19142 l -0.17982,0.1914 0.29879,0.2463 c 0.43526,0.35877 1.29923,0.76094 1.72016,0.80072 0.30633,0.0289 0.39403,0.004 0.54365,-0.15661 z m -3.57166,-1.01796 c 0.18358,-0.20284 0.17014,-0.41627 -0.0262,-0.41627 -0.10295,0 -0.17735,-0.0713 -0.20995,-0.20122 -0.064,-0.25469 -0.22718,-0.25593 -0.47944,-0.004 -0.23024,0.23023 -0.24419,0.34402 -0.0723,0.58945 0.15798,0.22554 0.59652,0.24318 0.78791,0.0316 z m 0.71682,-0.86794 c 0.4862,-0.38196 0.55917,-0.5631 0.31563,-0.7835 -0.24904,-0.22537 -0.4601,-0.15946 -0.79756,0.24913 -0.1737,0.21028 -0.34139,0.4263 -0.37266,0.48003 -0.0549,0.0944 0.2083,0.42947 0.33137,0.42173 0.0333,-0.002 0.26863,-0.16742 0.52322,-0.36739 z"
         style="fill:#afdde9;stroke-width:0.99999994" />
      <path
         style="fill:#afdde9;stroke:#000000;stroke-width:0.46302083;stroke-miterlimit:4;stroke-dasharray:none"
         d="m 473.74275,89.200733 v -0.35101 l -0.41333,-0.049 c -1.30642,-0.15472 -2.55032,-1.35972 -2.69893,-2.61453 l -0.0494,-0.41772 h -0.35102 c -0.34542,0 -0.35102,0.005 -0.35102,0.27326 0,0.39844 0.27954,1.23859 0.55826,1.67786 0.53079,0.83656 1.438,1.47492 2.42755,1.70818 0.83239,0.19621 0.87795,0.18441 0.87795,-0.22708 z m 7.85851,-0.67501 c 0.0942,-0.0159 0.6647,-0.53036 1.26781,-1.1431 1.50939,-1.53355 1.54726,-1.27966 -0.49549,-3.32238 -1.14961,-1.14962 -1.64364,-1.59201 -1.77784,-1.59201 -0.11815,0 -0.37414,0.18081 -0.70278,0.49637 l -0.51691,0.49639 -0.20172,-0.18951 -0.20171,-0.18949 0.23855,-0.2465 c 0.25371,-0.26219 0.4882,-0.74305 0.4882,-1.00119 0,-0.0858 0.0938,-0.33688 0.20839,-0.5578 0.6606,-1.27328 -0.26605,-2.28304 -1.53539,-1.67309 -0.22201,0.1067 -0.57418,0.23774 -0.78262,0.29125 -0.20973,0.0538 -0.52621,0.22332 -0.70866,0.37947 l -0.32967,0.2822 -0.19653,-0.18465 -0.19655,-0.18463 0.4826,-0.50258 c 0.50608,-0.52702 0.56349,-0.69293 0.36806,-1.06384 -0.0629,-0.11953 -0.78059,-0.87841 -1.5947,-1.68637 -1.23908,-1.22973 -1.51874,-1.46934 -1.71675,-1.47091 -0.1989,-0.001 -0.40106,0.16817 -1.27045,1.06657 -0.56864,0.58762 -1.08802,1.14844 -1.15416,1.24625 -0.22962,0.33957 -0.0732,0.5681 1.48943,2.17662 1.77868,1.83088 1.75191,1.81859 2.47478,1.13496 0.42766,-0.40446 0.44224,-0.41102 0.5989,-0.26925 0.0883,0.0799 0.16055,0.18372 0.16055,0.23067 0,0.047 -0.16986,0.25785 -0.37749,0.46865 -0.20762,0.21078 -0.36158,0.39575 -0.34211,0.41102 0.0194,0.0153 0.21517,0.13083 0.43487,0.25677 0.54511,0.31247 1.40811,1.20621 1.69639,1.75684 l 0.23752,0.45363 0.42135,-0.41612 0.42135,-0.41612 0.20479,0.19239 0.2048,0.1924 -0.39788,0.40685 c -0.37459,0.38305 -0.44236,0.52403 -0.41999,0.87375 0.0122,0.19104 2.85509,3.13063 3.13382,3.24044 0.11879,0.0468 0.29305,0.072 0.38724,0.0561 z m -7.85851,-0.6241 c 0,-0.34108 -0.0129,-0.36234 -0.22137,-0.36401 -0.62741,-0.005 -1.3835,-0.67456 -1.55123,-1.37374 l -0.0949,-0.39536 h -0.3542 c -0.19481,0 -0.35421,0.0286 -0.35421,0.0636 0,0.26388 0.28658,1.05962 0.48599,1.34944 0.39686,0.57681 1.28493,1.08231 1.90142,1.08231 0.16968,0 0.18845,-0.0361 0.18845,-0.36223 z m 3.43844,-0.29642 c 0.25971,-0.27826 0.42561,-0.82072 0.42324,-1.38397 -0.009,-2.12767 -2.39781,-4.41786 -4.39331,-4.21192 -0.60267,0.0622 -1.13995,0.31844 -1.24456,0.59356 -0.14633,0.38489 0.12413,1.15142 0.7134,2.02183 l 0.2338,0.34533 0.21734,-0.28495 0.21737,-0.28497 -0.20286,-0.26594 c -0.1115,-0.14627 -0.25911,-0.40065 -0.32791,-0.56528 -0.11186,-0.26774 -0.11209,-0.30432 -0.002,-0.34645 0.20893,-0.0802 0.46414,0.0327 1.01604,0.4494 1.09834,0.8293 2.64814,2.65658 2.64814,3.12231 0,0.28165 -0.30668,0.23017 -0.83543,-0.14021 -0.2528,-0.17708 -0.50604,-0.32197 -0.56277,-0.32197 -0.0567,0 -0.18406,0.0861 -0.28297,0.19142 l -0.17982,0.1914 0.29878,0.2463 c 0.43527,0.35877 1.29924,0.76094 1.72018,0.80072 0.30631,0.0289 0.39402,0.004 0.54364,-0.15661 z m -3.57167,-1.01796 c 0.18359,-0.20284 0.17013,-0.41627 -0.0262,-0.41627 -0.10295,0 -0.17734,-0.0713 -0.20994,-0.20122 -0.064,-0.25469 -0.22718,-0.25593 -0.47944,-0.004 -0.23024,0.23023 -0.24419,0.34402 -0.0723,0.58945 0.15798,0.22554 0.59653,0.24318 0.78791,0.0316 z m 0.71681,-0.86794 c 0.48621,-0.38196 0.55918,-0.5631 0.31564,-0.7835 -0.24904,-0.22537 -0.46009,-0.15946 -0.79756,0.24913 -0.17369,0.21028 -0.34139,0.4263 -0.37265,0.48003 -0.0549,0.0944 0.20829,0.42947 0.33137,0.42173 0.0333,-0.002 0.26863,-0.16742 0.5232,-0.36739 z"
         id="path61141"
         inkscape:connector-curvature="0" />
    </g>
    <g
       inkscape:export-ydpi="288"
       inkscape:export-xdpi="288"
       inkscape:export-filename="/home/adan/g61354.png"
       id="g61319"
       transform="matrix(1.1723607,0,0,1.1724783,-340.7786,63.054288)"
       style="stroke-width:0.85293704">
      <circle
         r="6.316927"
         cy="86.292435"
         cx="372.7814"
         id="path61256"
         style="opacity:1;fill:#f7931a;fill-opacity:1;stroke:none;stroke-width:0.39492759;stroke-linecap:round;stroke-miterlimit:4;stroke-dasharray:none;stroke-dashoffset:0;stroke-opacity:1" />
      <circle
         style="opacity:1;fill:none;fill-opacity:1;stroke:#000000;stroke-width:0.39492759;stroke-linecap:round;stroke-miterlimit:4;stroke-dasharray:none;stroke-dashoffset:0;stroke-opacity:1"
         id="circle61286"
         cx="372.13647"
         cy="86.292435"
         r="6.316927" />
      <path
         inkscape:connector-curvature="0"
         d="m 371.36067,88.842404 c -0.14605,-0.06762 -0.19135,-0.168309 -0.19135,-0.425414 v -0.18826 l -0.22017,-0.0068 c -0.23788,-0.0073 -0.28272,-0.02487 -0.37279,-0.145501 -0.0412,-0.05517 -0.0415,-0.06977 -0.0415,-1.784919 0,-1.715157 3e-4,-1.729751 0.0415,-1.78492 0.0899,-0.120438 0.13508,-0.138139 0.37107,-0.145455 l 0.21842,-0.0067 0.007,-0.218426 c 0.008,-0.235984 0.025,-0.281139 0.14545,-0.371059 0.078,-0.05823 0.26905,-0.05823 0.34705,0 0.12063,0.09007 0.13814,0.134904 0.1455,0.372795 l 0.007,0.220162 h 0.31872 0.31871 l 0.007,-0.220162 c 0.008,-0.237891 0.0248,-0.282729 0.1455,-0.372795 0.078,-0.05823 0.26906,-0.05823 0.34705,0 0.12504,0.09335 0.13812,0.130542 0.14532,0.413071 0.005,0.192942 0.0132,0.260456 0.0321,0.260456 0.063,0 0.32039,0.210154 0.41483,0.338618 0.16598,0.225779 0.191,0.318625 0.191,0.708789 0,0.38084 -0.0148,0.440538 -0.16615,0.670739 l -0.0901,0.136966 0.0818,0.11662 c 0.15651,0.223136 0.17349,0.289184 0.17397,0.676998 4.6e-4,0.392391 -0.0134,0.44906 -0.16633,0.681731 -0.0922,0.140215 -0.24858,0.280625 -0.38814,0.348512 l -0.0766,0.03724 -0.007,0.25545 c -0.007,0.277003 -0.0206,0.315044 -0.14522,0.408067 -0.078,0.05823 -0.26905,0.05823 -0.34705,0 -0.12063,-0.09007 -0.13814,-0.134905 -0.1455,-0.372796 l -0.007,-0.220162 h -0.31872 -0.31871 l -0.007,0.220162 c -0.008,0.236674 -0.0251,0.282912 -0.14253,0.370572 -0.0668,0.04983 -0.22715,0.06367 -0.30742,0.02651 z m 1.60132,-1.297078 c 0.1171,-0.0585 0.14094,-0.134302 0.14094,-0.448138 0,-0.313835 -0.0238,-0.389642 -0.14094,-0.448138 -0.0638,-0.03188 -0.15213,-0.03521 -0.93158,-0.03525 l -0.86109,-3.1e-5 v 0.483418 0.483419 l 0.86109,-4e-5 c 0.77945,-2e-5 0.86778,-0.0033 0.93158,-0.03525 z m 0,-1.611394 c 0.1171,-0.0585 0.14094,-0.134303 0.14094,-0.448139 0,-0.313835 -0.0238,-0.389643 -0.14094,-0.448138 -0.0638,-0.03188 -0.15213,-0.03522 -0.93158,-0.03525 l -0.86109,-3.1e-5 v 0.483419 0.483418 l 0.86109,-4e-5 c 0.77945,-2.1e-5 0.86778,-0.0033 0.93158,-0.03525 z"
         style="fill:#ffffff;stroke-width:0.85293704"
         id="path61290" />
      <path
         transform="rotate(-60)"
         inkscape:transform-center-y="-3.1063275"
         inkscape:transform-center-x="-3.5504947"
         d="m 116.32072,365.42587 a 4.9839201,4.9839201 0 0 1 -1.03703,3.04328"
         sodipodi:open="true"
         sodipodi:end="0.65684297"
         sodipodi:start="0"
         sodipodi:ry="4.9839201"
         sodipodi:rx="4.9839201"
         sodipodi:cy="365.42587"
         sodipodi:cx="111.3368"
         sodipodi:type="arc"
         id="circle61310"
         style="opacity:1;fill:none;fill-opacity:1;stroke:#ffffff;stroke-width:0.39492756;stroke-linecap:round;stroke-miterlimit:4;stroke-dasharray:none;stroke-dashoffset:0;stroke-opacity:1" />
      <path
         style="opacity:1;fill:none;fill-opacity:1;stroke:#ffffff;stroke-width:0.39492756;stroke-linecap:round;stroke-miterlimit:4;stroke-dasharray:none;stroke-dashoffset:0;stroke-opacity:1"
         id="path61312"
         sodipodi:type="arc"
         sodipodi:cx="-111.33679"
         sodipodi:cy="-365.42584"
         sodipodi:rx="4.9839201"
         sodipodi:ry="4.9839201"
         sodipodi:start="0"
         sodipodi:end="0.65684297"
         sodipodi:open="true"
         d="m -106.35287,-365.42584 a 4.9839201,4.9839201 0 0 1 -1.03704,3.04328"
         inkscape:transform-center-x="3.5504965"
         inkscape:transform-center-y="3.1063285"
         transform="rotate(120)" />
    </g>
    <g
       inkscape:export-ydpi="288"
       inkscape:export-xdpi="288"
       inkscape:export-filename="/home/adan/g61354.png"
       id="g61354"
       transform="matrix(0.73969435,0,0,0.73960463,-221.44331,27.376459)"
       style="stroke-width:1.35199177">
      <rect
         style="opacity:1;fill:#ffffff;fill-opacity:1;stroke:none;stroke-width:0.62600034;stroke-linecap:round;stroke-miterlimit:4;stroke-dasharray:none;stroke-dashoffset:0;stroke-opacity:1"
         id="rect61337"
         width="18.785418"
         height="18.785418"
         x="366.21075"
         y="144.40155"
         rx="0.26458335" />
      <g
         style="stroke-width:1.52838063"
         transform="matrix(0.88459091,0,0,0.88459091,40.313133,-1.7715246)"
         id="g60992">
        <path
           style="fill:none;stroke:#000000;stroke-width:0.70767212;stroke-linecap:round;stroke-linejoin:miter;stroke-miterlimit:4;stroke-dasharray:none;stroke-opacity:1;marker-end:url(#Arrow1Send)"
           d="M 371.1644,184.63941 V 167.44514"
           id="path56563"
           inkscape:connector-curvature="0"
           inkscape:transform-center-x="-0.0038133523"
           inkscape:transform-center-y="-6.7786743" />
        <g
           id="g60900"
           style="stroke:none;stroke-width:1.52838063"
           transform="translate(0.52916667)">
          <rect
             style="opacity:1;fill:#77d9ff;fill-opacity:1;stroke:none;stroke-width:0.80876815;stroke-linecap:round;stroke-miterlimit:4;stroke-dasharray:none;stroke-dashoffset:0;stroke-opacity:1"
             id="rect60888"
             width="1.8626653"
             height="5.0762472"
             x="372.61462"
             y="177.7401"
             rx="0.24647799" />
          <rect
             rx="0.24647799"
             y="176.51462"
             x="375.78967"
             height="6.3017406"
             width="1.8626653"
             id="rect60890"
             style="opacity:1;fill:#ffcd2e;fill-opacity:1;stroke:none;stroke-width:0.80876815;stroke-linecap:round;stroke-miterlimit:4;stroke-dasharray:none;stroke-dashoffset:0;stroke-opacity:1" />
          <rect
             style="opacity:1;fill:#32c098;fill-opacity:1;stroke:none;stroke-width:0.80876815;stroke-linecap:round;stroke-miterlimit:4;stroke-dasharray:none;stroke-dashoffset:0;stroke-opacity:1"
             id="rect60892"
             width="1.8626653"
             height="9.3977251"
             x="378.96463"
             y="173.41861"
             rx="0.24647799" />
          <rect
             rx="0.24647799"
             y="170.51614"
             x="382.13959"
             height="12.30021"
             width="1.8626653"
             id="rect60894"
             style="opacity:1;fill:#ff765c;fill-opacity:1;stroke:none;stroke-width:0.80876815;stroke-linecap:round;stroke-miterlimit:4;stroke-dasharray:none;stroke-dashoffset:0;stroke-opacity:1" />
        </g>
        <g
           id="g60906"
           style="fill:none;stroke-width:0.70767212;stroke-miterlimit:4;stroke-dasharray:none">
          <rect
             rx="0.24647799"
             y="177.7401"
             x="372.61462"
             height="5.0762472"
             width="1.8626653"
             id="rect60880"
             style="opacity:1;fill:none;fill-opacity:1;stroke:#000000;stroke-width:0.70767212;stroke-linecap:round;stroke-miterlimit:4;stroke-dasharray:none;stroke-dashoffset:0;stroke-opacity:1" />
          <rect
             style="opacity:1;fill:none;fill-opacity:1;stroke:#000000;stroke-width:0.70767212;stroke-linecap:round;stroke-miterlimit:4;stroke-dasharray:none;stroke-dashoffset:0;stroke-opacity:1"
             id="rect60882"
             width="1.8626653"
             height="6.3017406"
             x="375.78967"
             y="176.51462"
             rx="0.24647799" />
          <rect
             rx="0.24647799"
             y="173.41861"
             x="378.96463"
             height="9.3977251"
             width="1.8626653"
             id="rect60884"
             style="opacity:1;fill:none;fill-opacity:1;stroke:#000000;stroke-width:0.70767212;stroke-linecap:round;stroke-miterlimit:4;stroke-dasharray:none;stroke-dashoffset:0;stroke-opacity:1" />
          <rect
             style="opacity:1;fill:none;fill-opacity:1;stroke:#000000;stroke-width:0.70767212;stroke-linecap:round;stroke-miterlimit:4;stroke-dasharray:none;stroke-dashoffset:0;stroke-opacity:1"
             id="rect60886"
             width="1.8626653"
             height="12.30021"
             x="382.13959"
             y="170.51614"
             rx="0.24647799" />
        </g>
        <path
           inkscape:transform-center-y="0.0038108854"
           inkscape:transform-center-x="-6.7786785"
           inkscape:connector-curvature="0"
           id="path60103"
           d="M 369.34213,182.82476 H 386.5364"
           style="fill:none;stroke:#000000;stroke-width:0.70767212;stroke-linecap:round;stroke-linejoin:miter;stroke-miterlimit:4;stroke-dasharray:none;stroke-opacity:1;marker-end:url(#marker60687)" />
      </g>
      <rect
         rx="0.26458335"
         y="144.40155"
         x="365.58804"
         height="18.785418"
         width="18.785418"
         id="rect61335"
         style="opacity:1;fill:none;fill-opacity:1;stroke:#000000;stroke-width:0.62600034;stroke-linecap:round;stroke-miterlimit:4;stroke-dasharray:none;stroke-dashoffset:0;stroke-opacity:1" />
    </g>
  </g>
</svg>
